<?xml version="1.0" encoding="utf-8"?>
<!-- Generator: Adobe Illustrator 27.5.0, SVG Export Plug-In . SVG Version: 6.00 Build 0)  -->
<svg version="1.1" xmlns="http://www.w3.org/2000/svg" xmlns:xlink="http://www.w3.org/1999/xlink" x="0px" y="0px"
	 viewBox="0 0 500 500" style="enable-background:new 0 0 500 500;" xml:space="preserve">
<g id="BACKGROUND">
	<rect id="XMLID_3_" y="-0.125" style="fill:#FFFFFF;" width="500" height="500"/>
</g>
<g id="OBJECTS">
	<g>
		<g>
			<path style="fill:#994A26;" d="M135.04,133.365c-0.425,16.583,16.58,32.379,28.15,42.182c3.376,2.86,7.167,5.415,11.478,6.412
				c6.248,1.445,12.592-1.322,15.016-7.441c2.701-6.817-1.5-14.014-5.591-19.279c-10.703-13.774-25.181-30.987-44.919-26.556
				c-1.352,0.303-2.789,0.813-3.523,1.988C135.158,131.462,135.064,132.433,135.04,133.365z"/>
			<linearGradient id="SVGID_1_" gradientUnits="userSpaceOnUse" x1="159.3643" y1="185.7295" x2="161.5833" y2="127.085">
				<stop  offset="0" style="stop-color:#1F3F73"/>
				<stop  offset="1" style="stop-color:#1F3F73;stop-opacity:0"/>
			</linearGradient>
			<path style="opacity:0.5;fill:url(#SVGID_1_);" d="M135.04,133.366c-0.425,16.583,16.58,32.379,28.15,42.181
				c3.376,2.86,7.167,5.415,11.478,6.412c8.427,1.949,13.779-3.96,10.379-12.106c-1.459-3.496-4.118-6.329-6.723-9.08
				c-6.856-7.24-13.804-14.501-21.792-20.515c-3.916-2.948-8.077-5.594-12.522-7.674
				C140.758,131.061,135.191,127.477,135.04,133.366z"/>
			<path style="fill:#994A26;" d="M60.761,161.93c-1.929,4.898-3.492,10.035-3.525,15.299c-0.033,5.264,1.619,10.707,5.36,14.411
				c3.741,3.703,9.758,5.274,14.512,3.013c4.428-2.107,6.896-6.818,9.059-11.219c5.715-11.627,11.488-23.424,13.969-36.139
				c0.715-3.662,1.146-7.469,0.309-11.106c-0.837-3.636-3.134-7.103-6.581-8.529c-6.411-2.597-12.358,4.504-16.314,8.497
				C70.181,143.594,64.612,152.154,60.761,161.93z"/>
			
				<linearGradient id="SVGID_00000004515139908501216210000011977320445792691105_" gradientUnits="userSpaceOnUse" x1="68.8806" y1="163.5534" x2="92.4025" y2="163.5534">
				<stop  offset="0" style="stop-color:#1F3F73"/>
				<stop  offset="1" style="stop-color:#1F3F73;stop-opacity:0"/>
			</linearGradient>
			<path style="opacity:0.5;fill:url(#SVGID_00000004515139908501216210000011977320445792691105_);" d="M81.143,142.472
				c1.746-3.562,3.702-7.084,6.457-9.938c0.594-0.616,1.295-1.231,2.148-1.294c1.154-0.085,2.159,0.922,2.481,2.033
				c0.322,1.112,0.129,2.299-0.059,3.441c-1.577,9.58-2.624,19.246-3.135,28.941c-0.308,5.843,1.33,12.878-0.488,18.524
				c-1.449,4.499-6.848,7.519-10.678,9.939c-1.032,0.652-2.087,1.314-3.272,1.608s-2.543,0.163-3.464-0.638
				c-2.456-2.138-2.385-8.717-2.135-11.635c0.341-3.973,1.421-7.82,2.208-11.715C73.252,161.613,76.595,151.748,81.143,142.472z"/>
			<path style="fill:#994A26;" d="M76.323,174.598c-0.622,5.597-0.802,11.341,0.646,16.783s4.703,10.595,9.627,13.327
				c2.011,1.116,4.231,1.8,6.458,2.373c9.786,2.52,20.085,3.028,30.074,1.504c4.084-0.623,7.93-2.544,11.964-2.642
				c5.365-0.131,10.761,1.368,16.092,1.815c6.669,0.559,14.063-0.369,18.699-5.195c3.673-3.823,4.906-9.384,5.156-14.68
				c0.283-6.013-0.562-12.242-3.594-17.443c-3.094-5.308-8.11-9.247-10.41-15.052c-2.548-6.43-4.725-12.115-10.235-16.718
				c-4.931-4.12-11.102-6.459-17.3-8.155c-7.947-2.174-16.247-3.414-24.442-2.56c-2.33,0.243-4.68,0.653-6.999,0.323
				c-3.988-0.568-7.5-1.847-10.531,1.52c-3.072,3.413-5.051,9.157-6.85,13.329C80.364,153.131,77.526,163.77,76.323,174.598z"/>
			
				<linearGradient id="SVGID_00000054971938140761953590000001474885363319800247_" gradientUnits="userSpaceOnUse" x1="75.6183" y1="187.0915" x2="122.0164" y2="187.0915">
				<stop  offset="0" style="stop-color:#1F3F73"/>
				<stop  offset="1" style="stop-color:#1F3F73;stop-opacity:0"/>
			</linearGradient>
			<path style="opacity:0.5;fill:url(#SVGID_00000054971938140761953590000001474885363319800247_);" d="M79.529,164.591
				c-4.555,7.396-4.735,18.617-2.559,26.794c1.448,5.441,4.703,10.592,9.626,13.324c2.011,1.116,4.231,1.8,6.458,2.373
				c5.75,1.481,11.676,2.267,17.612,2.354c3.294,0.049,14.534,1.332,10.48-4.387c-3.751-5.293-10.583-7.059-16.152-9.708
				c-5.296-2.518-11.849-6.542-15.788-10.896c-1.171-1.294-2.045-2.823-2.91-4.338C85.083,177.983,77.805,167.39,79.529,164.591z"/>
			
				<linearGradient id="SVGID_00000022539185347019407680000010822083295697636502_" gradientUnits="userSpaceOnUse" x1="172.1854" y1="159.5422" x2="102.1932" y2="201.0901">
				<stop  offset="0" style="stop-color:#1F3F73"/>
				<stop  offset="1" style="stop-color:#1F3F73;stop-opacity:0"/>
			</linearGradient>
			<path style="opacity:0.5;fill:url(#SVGID_00000022539185347019407680000010822083295697636502_);" d="M77.539,177.885
				c-0.711,2.72,1.035,2.352,0.931,4.997c-0.14,3.559-1.764,6.771-0.891,10.422c1.099,4.594,4.957,9.152,9.017,11.404
				c2.011,1.116,4.231,1.8,6.458,2.373c9.786,2.52,20.085,3.028,30.074,1.504c4.084-0.623,7.931-2.544,11.964-2.642
				c5.365-0.131,10.761,1.368,16.092,1.815c6.669,0.559,14.063-0.369,18.699-5.195c3.673-3.823,4.906-9.384,5.156-14.68
				c0.183-3.884-0.087-7.845-1.151-11.598c-0.49-1.727-2.201-8.623-4.136-8.731c-0.653-0.037-1.266,0.19-1.839,0.523
				c-0.395,0.229-0.769,0.509-1.124,0.787c-4.295,3.368-8.105,7.353-11.28,11.793c-2.45,3.428-4.782,7.345-8.694,8.911
				c-7.968,3.187-21.434-1.86-29.196-4.22c-10.143-3.084-19.915-7.392-29.021-12.822c-1.847-1.101-3.888-2.294-6.005-1.92
				C80.409,170.992,78.1,175.74,77.539,177.885z"/>
			<path style="fill:#D9B691;" d="M98.298,156.047c-0.781,4.405-0.636,8.972,0.404,13.018c2.386,9.28,9.889,18.227,19.1,21.241
				c17.428,5.703,36.128-7.708,34.855-26.08c-0.41-5.916-1.7-11.862-4.594-17.039c-2.894-5.177-7.513-9.538-13.164-11.34
				c-9.285-2.96-20.832-1.263-28.427,5.035C102.044,144.556,99.343,150.156,98.298,156.047z"/>
			
				<linearGradient id="SVGID_00000089565068861316618450000001305188036903590052_" gradientUnits="userSpaceOnUse" x1="97.8019" y1="173.0832" x2="152.2835" y2="173.0832">
				<stop  offset="0" style="stop-color:#1F3F73"/>
				<stop  offset="1" style="stop-color:#1F3F73;stop-opacity:0"/>
			</linearGradient>
			<path style="opacity:0.5;fill:url(#SVGID_00000089565068861316618450000001305188036903590052_);" d="M129.892,182.202
				c-15.936,1.386-27.823-12.374-31.269-27.669c-0.115,0.503-0.234,1.005-0.324,1.513c-0.781,4.405-0.637,8.972,0.404,13.018
				c2.386,9.28,9.889,18.227,19.1,21.241c15.337,5.019,31.653-4.768,34.481-19.71C146.677,176.755,139.478,181.136,129.892,182.202z
				"/>
			<path style="fill:#D13041;" d="M152.685,165.71c-0.134-0.542-0.61-0.977-0.965-1.393c-0.081-0.094-0.163-0.187-0.244-0.281
				c0.027-0.011,0.054-0.022,0.081-0.033c-5.293-11.455-11.169-22.64-17.599-33.498l-17.228,4.403
				c5.672,11.851,11.343,23.701,17.015,35.552c0.131-0.039,0.26-0.083,0.391-0.122c0.229,0.914,0.46,1.83,0.758,2.718
				c0.213,0.634,1.194,0.377,1.011-0.279c-0.254-0.914-0.584-1.812-0.911-2.708c0.324-0.099,0.644-0.209,0.967-0.309
				c0.019,0.206,0.035,0.413,0.057,0.619c0.063,0.587-0.005,1.195,0.429,1.632c0.166,0.167,0.461,0.132,0.578-0.075
				c0.305-0.537,0.081-1.107-0.013-1.692c-0.042-0.26-0.089-0.519-0.136-0.777c0.415-0.132,0.826-0.275,1.24-0.411
				c0.2,0.885,0.408,1.774,0.725,2.601c0.256,0.668,1.226,0.418,1.08-0.298c-0.181-0.885-0.491-1.764-0.804-2.634
				c0.34-0.113,0.676-0.234,1.015-0.349c0.144,0.464,0.289,0.928,0.43,1.392c0.181,0.597,0.247,1.212,0.77,1.591
				c0.206,0.149,0.489-0.013,0.555-0.226c0.187-0.604-0.181-1.196-0.389-1.763c-0.159-0.434-0.314-0.869-0.471-1.304
				c0.373-0.129,0.744-0.265,1.117-0.397c0.287,0.772,0.563,1.566,0.979,2.249c0.33,0.541,1.282,0.194,1.059-0.447
				c-0.258-0.743-0.671-1.447-1.074-2.145c0.618-0.223,1.229-0.463,1.844-0.693c0.035,0.107,0.071,0.213,0.105,0.32
				c0.187,0.587,0.308,1.263,0.677,1.764c0.293,0.397,1.039,0.315,1.013-0.274c-0.028-0.635-0.332-1.214-0.56-1.801
				c-0.053-0.138-0.104-0.276-0.157-0.414c0.286-0.109,0.57-0.224,0.855-0.334c0.165,0.434,0.331,0.868,0.506,1.297
				c0.119,0.292,0.304,0.431,0.614,0.468c0.279,0.033,0.39-0.107,0.55-0.316c0.146-0.189,0.085-0.449,0-0.643
				c-0.181-0.416-0.371-0.828-0.562-1.239c0.392-0.155,0.779-0.322,1.17-0.479c0.069,0.139,0.142,0.276,0.211,0.415
				c0.307,0.615,0.553,1.434,1.206,1.745c0.33,0.157,0.65-0.037,0.686-0.394c0.073-0.718-0.51-1.367-0.874-1.946
				c-0.054-0.086-0.106-0.172-0.16-0.258c0.061-0.025,0.122-0.05,0.183-0.075c0.126,0.187,0.252,0.374,0.38,0.559
				c0.312,0.452,0.606,1.019,1.098,1.288C152.311,166.544,152.799,166.17,152.685,165.71z"/>
			<path style="fill:#D13041;" d="M112.351,135.416c-3.732,12.099-5.897,24.68-6.423,37.331c6.063,0.641,12.312,1.786,18.4,1.883
				c-0.118-2.541,0.517-5.35,0.725-7.957c0.779-9.787,1.558-19.574,2.336-29.361c0.39,0.242,0.594,0.75,0.479,1.195L112.351,135.416
				z"/>
			
				<linearGradient id="SVGID_00000018944952987794262970000010625203200068211079_" gradientUnits="userSpaceOnUse" x1="105.9277" y1="155.023" x2="127.8991" y2="155.023">
				<stop  offset="0" style="stop-color:#1F3F73"/>
				<stop  offset="1" style="stop-color:#1F3F73;stop-opacity:0"/>
			</linearGradient>
			<path style="opacity:0.5;fill:url(#SVGID_00000018944952987794262970000010625203200068211079_);" d="M112.351,135.416
				c-3.732,12.099-5.897,24.68-6.423,37.331c6.063,0.641,12.312,1.786,18.4,1.883c-0.118-2.541,0.517-5.35,0.725-7.957
				c0.779-9.787,1.558-19.574,2.336-29.361c0.39,0.242,0.594,0.75,0.479,1.195L112.351,135.416z"/>
			<path style="fill:#D13041;" d="M122.786,172.751c-0.105,0.667-0.216,1.333-0.315,2.001c-0.083,0.561-0.215,1.133-0.112,1.693
				c0.073,0.395,0.578,0.288,0.699,0c0.218-0.52,0.196-1.158,0.233-1.718c0.041-0.63,0.075-1.261,0.113-1.892
				C123.424,172.487,122.841,172.398,122.786,172.751z"/>
			<path style="fill:#D13041;" d="M121.37,172.943c-0.127,0.563-0.261,1.125-0.388,1.689c-0.107,0.475-0.29,0.964-0.146,1.441
				c0.084,0.277,0.408,0.278,0.565,0.074c0.297-0.385,0.301-0.946,0.369-1.417c0.078-0.537,0.15-1.075,0.23-1.613
				C122.061,172.712,121.465,172.523,121.37,172.943z"/>
			<path style="fill:#D13041;" d="M119.651,174.683c-0.073-0.824-0.166-1.646-0.241-2.469c-0.047-0.509-0.815-0.529-0.808,0
				c0.011,0.823,0.005,1.646,0.019,2.469c0.011,0.69-0.116,1.414,0.253,2.02c0.15,0.246,0.577,0.292,0.715,0
				C119.896,176.05,119.714,175.386,119.651,174.683z"/>
			<path style="fill:#D13041;" d="M117.642,172.754c-0.09,0.493-0.18,0.985-0.28,1.476c-0.086,0.423-0.252,0.87-0.105,1.289
				c0.1,0.286,0.445,0.32,0.616,0.081c0.257-0.36,0.22-0.838,0.255-1.266c0.041-0.499,0.091-0.996,0.142-1.494
				C118.306,172.483,117.706,172.4,117.642,172.754z"/>
			
				<linearGradient id="SVGID_00000181792291118062670040000012311117777683850130_" gradientUnits="userSpaceOnUse" x1="110.5212" y1="139.1842" x2="138.7061" y2="139.1842">
				<stop  offset="0" style="stop-color:#1F3F73"/>
				<stop  offset="1" style="stop-color:#1F3F73;stop-opacity:0"/>
			</linearGradient>
			<path style="opacity:0.5;fill:url(#SVGID_00000181792291118062670040000012311117777683850130_);" d="M111.123,138.341
				c-0.195,1.462-0.39,2.923-0.585,4.385c-0.022,0.165-0.039,0.35,0.062,0.482c0.086,0.112,0.233,0.153,0.369,0.187
				c4.832,1.189,9.866,0.909,14.716-0.018c2.476-0.473,4.917-1.118,7.334-1.83c1.069-0.315,5.525-0.934,5.674-2.096
				c0.078-0.608-0.237-1.187-0.494-1.744c-0.511-1.108-0.822-2.307-0.914-3.523L111.123,138.341z"/>
			<path style="fill:#D13041;" d="M99.191,137.913c10.666,2.829,22.59,4.319,33.288,0.837c4.109-1.337,10.283-3.059,12.004-7.558
				c2.396-6.268-0.997-10.941-6.865-13.288c-4.787-1.9-10.098-1.806-15.247-1.684c-8.099,0.192-16.197,0.383-24.296,0.575
				c-5.74,0.136-8.904,1.599-10.493,7.133C85.4,131.523,93.147,136.309,99.191,137.913z"/>
			
				<linearGradient id="SVGID_00000136396486890010472840000001318548779174569881_" gradientUnits="userSpaceOnUse" x1="88.3501" y1="125.3173" x2="145.2459" y2="125.3173">
				<stop  offset="0" style="stop-color:#1F3F73"/>
				<stop  offset="1" style="stop-color:#1F3F73;stop-opacity:0"/>
			</linearGradient>
			<path style="opacity:0.5;fill:url(#SVGID_00000136396486890010472840000001318548779174569881_);" d="M145.048,129.218
				c1.055-5.275-2.198-9.222-7.431-11.315c-4.787-1.9-10.098-1.806-15.247-1.684c-8.099,0.192-16.197,0.383-24.296,0.575
				c-4.934,0.117-7.961,1.222-9.724,5.043C103.887,137.629,125.536,136.807,145.048,129.218z"/>
			<path style="fill:#994A26;" d="M99.728,89.792c5.374-12.352-6.106-27.255-19.552-23.686c-6.991,1.856-11.838,8.363-12.849,15.356
				c-1.396,9.657,5.679,14.813,14.279,16.907c2.131,0.519,3.707,1.21,5.9,1.152c2.133-0.057,4.03-1.336,5.658-2.717
				C96.001,94.398,98.244,93.204,99.728,89.792z"/>
			<path style="fill:#D9B691;" d="M73.339,83.482c-0.305-1.228-0.451-2.516-0.22-3.76c0.528-2.846,3.001-5.045,5.752-5.944
				c2.065-0.675,4.367-0.72,6.389,0.078c2.021,0.798,3.719,2.481,4.34,4.564c0.321,1.079,0.355,2.22,0.346,3.345
				c-0.019,2.508-0.258,5.093-1.424,7.313C83.79,98.082,75.006,90.187,73.339,83.482z"/>
			
				<linearGradient id="SVGID_00000097492820066139189680000007678846135509765760_" gradientUnits="userSpaceOnUse" x1="73.3332" y1="82.6088" x2="101.0808" y2="82.6088">
				<stop  offset="0" style="stop-color:#1F3F73"/>
				<stop  offset="1" style="stop-color:#1F3F73;stop-opacity:0"/>
			</linearGradient>
			<path style="opacity:0.5;fill:url(#SVGID_00000097492820066139189680000007678846135509765760_);" d="M86.14,65.693
				c-6.071,5.343-10.624,12.369-12.357,20.459c-0.417,2.916-0.65,6.015-0.222,8.897c2.316,1.506,5.085,2.6,8.045,3.321
				c2.131,0.519,3.707,1.21,5.9,1.152c2.133-0.057,4.03-1.336,5.658-2.717c2.837-2.407,5.08-3.601,6.564-7.012
				C104.282,79.325,96.732,67.031,86.14,65.693z"/>
			<path style="fill:#994A26;" d="M167.201,72.1c8.062,3.691,10.777,14.555,9.381,22.693c-1.188,6.922-7.868,12.154-14.643,12.939
				c-12.885,1.493-20.054-10.32-19.392-21.873c0.553-9.645,10.922-16.412,19.955-15.118C164.163,70.979,165.744,71.433,167.201,72.1
				z"/>
			<path style="fill:#D9B691;" d="M168.211,89.274c0.059,2.391-0.463,4.836-1.761,6.844c-1.299,2.008-3.424,3.533-5.796,3.832
				c-2.372,0.3-4.935-0.751-6.191-2.786c-2.342-3.795-2.429-14.063,1.808-16.92C162.334,76.155,168.077,83.817,168.211,89.274z"/>
			
				<linearGradient id="SVGID_00000030464236445824373600000003887452915980696199_" gradientUnits="userSpaceOnUse" x1="142.505" y1="89.6334" x2="166.7456" y2="89.6334">
				<stop  offset="0" style="stop-color:#1F3F73"/>
				<stop  offset="1" style="stop-color:#1F3F73;stop-opacity:0"/>
			</linearGradient>
			<path style="opacity:0.5;fill:url(#SVGID_00000030464236445824373600000003887452915980696199_);" d="M154.945,71.407
				c-6.455,2.001-11.998,7.471-12.398,14.452c-0.662,11.552,6.507,23.365,19.392,21.873c1.625-0.188,3.243-0.639,4.783-1.301
				C167.172,94.522,161.191,81.992,154.945,71.407z"/>
			<path style="fill:#994A26;" d="M158.904,111.568c-9.621,25.868-48.479,21.135-67.265,9.93
				c-20.734-12.366-12.786-40.146,4.564-51.685c22.692-15.093,60.981-3.681,64.519,25.526
				C161.381,100.781,160.819,106.419,158.904,111.568z"/>
			
				<linearGradient id="SVGID_00000024681305023629017900000001472314936487985823_" gradientUnits="userSpaceOnUse" x1="89.4505" y1="72.8445" x2="155.4626" y2="72.8445">
				<stop  offset="0" style="stop-color:#1F3F73"/>
				<stop  offset="1" style="stop-color:#1F3F73;stop-opacity:0"/>
			</linearGradient>
			<path style="opacity:0.5;fill:url(#SVGID_00000024681305023629017900000001472314936487985823_);" d="M155.164,82.53
				c-0.047,0.007-0.1,0.01-0.16,0.006c-4.081-0.223-7.932-1.842-11.846-3.018c-15.453-4.644-32.057-2.411-47.946,0.402
				c-2.064,0.365-4.812,0.377-5.539-1.588c-1.964-5.317,9.614-10.554,13.039-11.972c5.724-2.368,11.978-3.372,18.157-3.187
				c7.181,0.215,14.368,2.019,20.716,5.405c3.257,1.738,6.295,3.893,8.953,6.46C150.794,75.285,156.86,82.264,155.164,82.53z"/>
			
				<linearGradient id="SVGID_00000160880010140950931370000012357135441050674311_" gradientUnits="userSpaceOnUse" x1="79.2661" y1="102.5938" x2="160.912" y2="102.5938">
				<stop  offset="0" style="stop-color:#1F3F73"/>
				<stop  offset="1" style="stop-color:#1F3F73;stop-opacity:0"/>
			</linearGradient>
			<path style="opacity:0.5;fill:url(#SVGID_00000160880010140950931370000012357135441050674311_);" d="M140.352,118.485
				c-13.314,3.804-26.628,6.657-38.991-0.951C86.66,108.55,83.192,89.047,90.336,74.683c-12.987,13.193-16.913,35.952,1.303,46.816
				c18.786,11.204,57.644,15.938,67.265-9.93c1.153-3.101,1.807-6.381,2.008-9.687C156.397,109.583,149.465,115.608,140.352,118.485
				z"/>
			<path style="fill:#994A26;" d="M132.059,212.804c-0.37,0.569-0.781,1.114-1.233,1.63c-5.538,6.321-14.803,6.497-22.56,5.665
				c-8.585-0.921-17.336-4.859-21.541-12.784c-4.099-7.726-3.237-17.967,1.669-25.107c8.353-12.157,24.524-13.517,35.514-4.278
				c6.063,5.097,9.825,13.433,10.795,21.201C135.279,203.746,134.636,208.849,132.059,212.804z"/>
			
				<linearGradient id="SVGID_00000003092683375102920310000014969254405374064000_" gradientUnits="userSpaceOnUse" x1="84.1159" y1="202.1137" x2="134.5347" y2="202.1137">
				<stop  offset="0" style="stop-color:#1F3F73"/>
				<stop  offset="1" style="stop-color:#1F3F73;stop-opacity:0"/>
			</linearGradient>
			<path style="opacity:0.5;fill:url(#SVGID_00000003092683375102920310000014969254405374064000_);" d="M132.059,212.804
				c-0.37,0.569-0.781,1.114-1.233,1.63c-5.538,6.321-14.803,6.497-22.56,5.665c-8.585-0.921-17.336-4.859-21.541-12.784
				c-2.146-4.044-2.914-8.735-2.502-13.273c0.19-2.096,0.542-4.443,1.402-6.382c0.526-1.186,2.72-2.982,2.858-3.887
				c2.155,9.57,9.089,18.038,18.22,21.624c9.131,3.585,20.209,1.983,27.673-4.382c-0.256,0.256,0.266,4.639,0.139,5.456
				C134.171,208.693,133.284,210.924,132.059,212.804z"/>
			<path style="fill:#994A26;" d="M205.995,198.452c-2.125,5.087-6.167,9.198-10.966,11.836c-7.001,3.849-15.909,5.464-23.837,5.597
				c-11.388,0.19-22.08-6.373-19.144-19.06c0.751-3.243,2.337-6.237,4.174-9.013c7.47-11.289,20.806-19.749,34.158-17.519
				c3.613,0.603,7.134,1.983,10.006,4.256C207.278,180.001,209.382,190.343,205.995,198.452z"/>
			
				<linearGradient id="SVGID_00000062905067286011884290000000697281010060384646_" gradientUnits="userSpaceOnUse" x1="150.4992" y1="195.6944" x2="207.5799" y2="195.6944">
				<stop  offset="0" style="stop-color:#1F3F73"/>
				<stop  offset="1" style="stop-color:#1F3F73;stop-opacity:0"/>
			</linearGradient>
			<path style="opacity:0.5;fill:url(#SVGID_00000062905067286011884290000000697281010060384646_);" d="M205.995,198.452
				c-2.125,5.087-6.167,9.198-10.966,11.836c-7.001,3.849-15.908,5.464-23.836,5.597c-4.863,0.081-10.08-1.018-14.037-3.979
				c-2.296-1.717-7.995-8.217-6.368-11.217c3.977,2.728,8.494,3.702,13.285,2.886c4.635-0.79,8.913-2.944,13.058-5.162
				c9.999-5.351,20.45-12.134,23.972-22.914C207.971,180.244,208.976,191.315,205.995,198.452z"/>
			<path style="fill:#D9B691;" d="M103.724,121.025c-2.247-5.299-1.072-12.575,2.387-18.502c6.341-10.867,23.953-10.978,30.08,0.335
				c5.788,10.687,5.284,26.936-10.458,26.538C117.677,129.192,107.452,129.817,103.724,121.025z"/>
			
				<linearGradient id="SVGID_00000152976100794344135460000005551896796739886982_" gradientUnits="userSpaceOnUse" x1="102.7063" y1="123.2677" x2="139.4409" y2="123.2677">
				<stop  offset="0" style="stop-color:#1F3F73"/>
				<stop  offset="1" style="stop-color:#1F3F73;stop-opacity:0"/>
			</linearGradient>
			<path style="opacity:0.5;fill:url(#SVGID_00000152976100794344135460000005551896796739886982_);" d="M102.706,117.056
				c0.167,1.401,0.497,2.74,1.018,3.969c3.728,8.792,13.984,7.634,22.009,8.371c8.504,0.78,12.249-3.984,13.707-11.334
				C127.578,123.429,113.671,124.068,102.706,117.056z"/>
			<path style="fill:#131315;" d="M110.11,91.397c-0.311-1.461-1.903-2.338-3.295-2.151c-1.595,0.214-2.415,1.441-2.604,2.95
				c-0.097,0.776,0.017,1.597,0.057,2.376c0.048,0.934,0.042,1.888,0.284,2.796c0.245,0.92,1.083,1.89,2.062,2.062
				c0.521,0.092,0.956,0.149,1.489,0.019c0.027-0.007,0.053-0.013,0.08-0.019c0.92-0.224,1.891-1.099,2.062-2.062
				C110.567,95.55,110.494,93.204,110.11,91.397z"/>
			<path style="fill:#131315;" d="M139.734,93.852c-0.311-1.461-1.903-2.338-3.295-2.151c-1.595,0.214-2.415,1.441-2.604,2.95
				c-0.097,0.776,0.017,1.597,0.057,2.376c0.048,0.934,0.042,1.888,0.284,2.796c0.245,0.92,1.083,1.89,2.062,2.062
				c0.521,0.092,0.956,0.149,1.489,0.019c0.027-0.007,0.053-0.013,0.08-0.019c0.92-0.224,1.891-1.099,2.062-2.062
				C140.191,98.005,140.119,95.659,139.734,93.852z"/>
			<path style="fill:#131315;" d="M129.03,107.293c0.135-1.445-1.577-2.288-2.993-2.602c-3.077-0.683-6.258-0.893-9.398-0.62
				c-1.607,0.14-3.644,0.907-3.553,2.518c0.123,2.177,4.698,6.066,7.28,6.713c-0.146,2.519-0.292,5.038-0.439,7.557
				c-1.508-0.218-2.961-1.024-4.062-2.427c-0.375-0.478-1.039,0.195-0.668,0.668c2.88,3.673,8.152,3.702,11.079,0.069
				c0.378-0.469-0.286-1.141-0.668-0.668c-1.277,1.585-3.005,2.386-4.74,2.417l0.438-7.54
				C123.631,113.104,128.825,109.488,129.03,107.293z"/>
			<path style="fill:#D9B691;" d="M101.568,207.02c-2.879-2.771-4.695-6.239-4.692-10.785c0.005-6.912,3.946-14.792,11.58-15.359
				c12.234-0.908,20.438,8.859,20.682,20.26c0.055,2.57-0.063,5.193-0.946,7.607c-3.456,9.444-14.74,5.838-21.275,2.146
				C104.911,209.757,103.091,208.486,101.568,207.02z"/>
			<path style="fill:#D9B691;" d="M170.595,188.298c4.101-4.154,9.691-7.138,15.526-6.98c5.835,0.158,11.706,4,13.144,9.657
				c1.137,4.474-0.596,9.34-3.661,12.792c-3.065,3.453-7.301,5.662-11.646,7.223c-3.002,1.078-6.202,1.891-9.361,1.453
				C161.299,210.598,163.444,195.543,170.595,188.298z"/>
			<path style="fill:#8F1722;" d="M123.955,33.251c-5.786-10.678-17.316,2.062-21.738,6.826c-2.196,2.366-4.225,4.887-6.063,7.54
				c-0.747,1.078-3.656,7.497-4.612,7.712c4.176-0.936,8.351-1.872,12.527-2.808c3.044-0.682,6.11-1.372,8.97-2.618
				c2.962-1.291,5.665-3.174,7.903-5.504C123.797,41.424,125.919,36.876,123.955,33.251z"/>
			
				<linearGradient id="SVGID_00000157303464341233220010000015839367623965745803_" gradientUnits="userSpaceOnUse" x1="96.154" y1="43.8471" x2="102.217" y2="43.8471">
				<stop  offset="0" style="stop-color:#1F3F73"/>
				<stop  offset="1" style="stop-color:#1F3F73;stop-opacity:0"/>
			</linearGradient>
			<path style="opacity:0.5;fill:url(#SVGID_00000157303464341233220010000015839367623965745803_);" d="M102.217,40.077
				c-2.196,2.366-4.225,4.887-6.063,7.54"/>
			<path style="fill:#FEFFC4;" d="M90.891,60.831c0.705,0.128,1.463,0.105,2.258-0.107c3.792-1.011,4.899-6.205,3.067-9.31
				c-1.507-2.555-5.246-3.436-7.764-1.868C83.839,52.419,86.188,59.979,90.891,60.831z"/>
			
				<linearGradient id="SVGID_00000018238488824753485280000000554633458605414556_" gradientUnits="userSpaceOnUse" x1="86.7574" y1="57.4285" x2="97.0772" y2="57.4285">
				<stop  offset="0" style="stop-color:#1F3F73"/>
				<stop  offset="1" style="stop-color:#1F3F73;stop-opacity:0"/>
			</linearGradient>
			<path style="opacity:0.5;fill:url(#SVGID_00000018238488824753485280000000554633458605414556_);" d="M86.757,57.472
				c0.847,1.685,2.309,3.029,4.134,3.36c0.705,0.128,1.463,0.105,2.258-0.107c2.874-0.767,4.202-3.935,3.881-6.777
				c-1.445,1.453-3.193,2.682-5.178,3.675C90.492,58.075,88.487,58.089,86.757,57.472z"/>
			<path style="fill:#D13041;" d="M106.045,41.053c1.814-3.51,3.677-7.086,6.509-9.841c2.832-2.755,6.855-4.596,10.732-3.83
				c3.132,0.619,5.699,2.795,8.043,4.962c5.04,4.661,9.835,9.735,13.068,15.791s4.796,13.233,3.102,19.886
				c-16.307-0.26-34.243,1.443-50.261-0.956C98.226,57.558,101.688,49.482,106.045,41.053z"/>
			
				<linearGradient id="SVGID_00000168100689351883950970000014128606972421891744_" gradientUnits="userSpaceOnUse" x1="97.2384" y1="54.8689" x2="148.1896" y2="54.8689">
				<stop  offset="0" style="stop-color:#1F3F73"/>
				<stop  offset="1" style="stop-color:#1F3F73;stop-opacity:0"/>
			</linearGradient>
			<path style="opacity:0.5;fill:url(#SVGID_00000168100689351883950970000014128606972421891744_);" d="M115.627,49.063
				c-3.539-1.77-7.067-4.372-9.744-7.692c-4.28,8.315-7.669,16.307-8.644,25.694c16.018,2.4,33.955,0.697,50.261,0.957
				c1.237-4.861,0.732-10-0.889-14.779C136.372,55.496,125.755,54.851,115.627,49.063z"/>
			<path style="fill:#FEFFC4;" d="M147.37,74.897c5.309-0.965,4.653-7.293,2.994-10.425c-5.522-10.426-29.154-10.548-40.103-9.287
				c-6.778,0.78-14.404,4.431-16.39,10.399c-2.988,8.977,5.656,5.834,12.154,5.184c7.083-0.708,14.293-1.093,21.4-0.399
				c6.049,0.591,10.799,2.256,16.332,4.126C145.18,74.974,146.376,75.077,147.37,74.897z"/>
			
				<linearGradient id="SVGID_00000072982389521557704270000013938040804149003705_" gradientUnits="userSpaceOnUse" x1="93.2691" y1="67.5896" x2="151.55" y2="67.5896">
				<stop  offset="0" style="stop-color:#1F3F73"/>
				<stop  offset="1" style="stop-color:#1F3F73;stop-opacity:0"/>
			</linearGradient>
			<path style="opacity:0.5;fill:url(#SVGID_00000072982389521557704270000013938040804149003705_);" d="M118.48,60.475
				c-9.132-1.66-16.814,4.65-24.946,6.28c-1.841,7.508,6.295,4.632,12.49,4.012c7.083-0.708,14.293-1.093,21.4-0.399
				c6.049,0.591,10.799,2.256,16.332,4.126c1.423,0.48,2.618,0.583,3.612,0.403c3.79-0.689,4.533-4.109,4.048-7.151
				C140.208,68.101,130.064,62.13,118.48,60.475z"/>
			<path style="fill:#FEFFC4;" d="M108.857,91.795c-0.052-1.008-1.516-1.01-1.568,0c-0.006,0.106-0.011,0.211-0.016,0.317
				c-0.053,1.03,1.655,1.032,1.601,0C108.868,92.007,108.862,91.901,108.857,91.795z"/>
			<path style="fill:#FEFFC4;" d="M138.61,94.206c-0.052-1.008-1.516-1.01-1.568,0c-0.006,0.106-0.011,0.211-0.016,0.317
				c-0.053,1.03,1.655,1.032,1.601,0C138.621,94.417,138.616,94.312,138.61,94.206z"/>
		</g>
		<path style="opacity:0.5;fill:#FCFCFC;" d="M149.633,82.276c-1.652-1.284-3.792,0.257-2.892,2.231
			c1.313,2.879,2.995,5.546,4.038,8.552c1.057,3.045,1.333,6.076,1.655,9.255c0.33,3.251,4.867,3.322,5.113,0
			C158.052,95.483,155.17,86.58,149.633,82.276z"/>
		<path style="opacity:0.5;fill:#FCFCFC;" d="M154.291,108.11c-0.672-0.616-1.484-0.647-2.29-0.296
			c0.059-0.03,0.118-0.059,0.176-0.089c-0.475,0.145-0.975,0.482-1.214,0.933c-0.273,0.517-0.286,0.992-0.205,1.565
			c0.008,0.055,0.016,0.11,0.023,0.166c0.075,0.53,0.699,1.154,1.229,1.229c0.055,0.008,0.11,0.016,0.166,0.023
			c0.539,0.076,1.079,0.109,1.565-0.205c0.452-0.291,0.774-0.693,0.933-1.214c-0.03,0.059-0.059,0.117-0.089,0.176
			C154.915,109.647,154.955,108.719,154.291,108.11z"/>
		<path style="opacity:0.5;fill:#FCFCFC;" d="M195.347,175.421c-3.729-3.883-12.897-3.935-17.267-1.243
			c-1.532,0.943-1.001,3.664,0.962,3.552c2.527-0.144,4.985-0.726,7.532-0.516c2.567,0.211,4.807,1.493,7.322,1.71
			C195.748,179.084,196.494,176.616,195.347,175.421z"/>
		<path style="opacity:0.5;fill:#FCFCFC;" d="M200.029,180.584c-2.077,0-2.08,3.227,0,3.227
			C202.105,183.811,202.109,180.584,200.029,180.584z"/>
		<path style="opacity:0.5;fill:#FCFCFC;" d="M117.752,177.918c-4.824-3.49-13.423-4.629-18.493-1.06
			c-1.361,0.958-1.108,3.799,0.962,3.552c2.472-0.295,4.826-0.936,7.34-0.796c2.88,0.161,5.234,1.158,7.774,2.437
			C118.125,183.457,120.228,179.709,117.752,177.918z"/>
		<path style="opacity:0.5;fill:#FCFCFC;" d="M175.973,149.086c-4.219-6.872-13.539-14.191-21.709-15.151
			c-1.224-0.144-2.035,1.766-1.049,2.533c3.054,2.375,6.604,4.022,9.723,6.325c3.591,2.652,6.321,5.943,9.479,9.037
			C174.225,153.6,177.344,151.32,175.973,149.086z"/>
		<path style="opacity:0.5;fill:#FCFCFC;" d="M77.865,141.955c-2.834,0.687-4.971,4.064-6.579,6.34
			c-1.921,2.72-3.361,5.789-4.052,9.045c-0.361,1.7,1.962,2.834,2.89,1.218c1.498-2.607,2.963-5.22,4.741-7.651
			c1.637-2.238,4.36-4.053,5.285-6.667C80.643,142.845,79.151,141.644,77.865,141.955z"/>
		<path style="opacity:0.5;fill:#FCFCFC;" d="M140.69,46.439c-3.337-6.945-9.521-14.451-17.229-16.654
			c-1.601-0.458-3.054,1.754-1.696,2.914c2.757,2.358,5.763,4.299,8.27,6.966c2.589,2.755,4.65,5.93,6.269,9.337
			C137.704,51.95,142.102,49.378,140.69,46.439z"/>
	</g>
	<g>
		<g>
			<g>
				<polygon style="fill:#21786C;" points="440.209,160.414 400.136,154.495 318.625,156.609 329.619,179.865 				"/>
				<path style="fill:#2A998A;" d="M426.283,154.491h-60.441v-39.433h60.441c10.889,0,19.717,8.827,19.717,19.717v0
					C446,145.664,437.173,154.491,426.283,154.491z"/>
				
					<linearGradient id="SVGID_00000039130686787083490960000006620209729079964597_" gradientUnits="userSpaceOnUse" x1="454.3885" y1="143.9979" x2="422.3215" y2="142.3535">
					<stop  offset="0" style="stop-color:#1F3F73"/>
					<stop  offset="1" style="stop-color:#1F3F73;stop-opacity:0"/>
				</linearGradient>
				<path style="opacity:0.5;fill:url(#SVGID_00000039130686787083490960000006620209729079964597_);" d="M365.843,145.82v8.671
					h60.441c10.889,0,19.717-8.827,19.717-19.717v0c0-2.204-0.377-4.315-1.044-6.294
					C422.606,143.527,393.585,147.538,365.843,145.82z"/>
				<path style="fill:#D13041;" d="M440.731,134.775c0,6.512-2.642,12.41-6.907,16.686c-3.157,3.146-7.192,5.405-11.698,6.37
					c-1.59,0.351-3.245,0.537-4.933,0.537h-72.4v-47.196h72.345c1.129,0,2.247,0.077,3.333,0.241
					c1.48,0.197,2.905,0.548,4.287,1.031c3.223,1.085,6.139,2.872,8.573,5.175c1.348,1.261,2.543,2.697,3.563,4.254
					C439.317,125.577,440.731,130.017,440.731,134.775z"/>
				<path style="fill:#E0D4D4;" d="M369.021,111.171c-1.37,8.485-6.479,35.455-17.311,47.196h-4.451
					c10.821-11.741,15.929-38.711,17.3-47.196H369.021z"/>
				<path style="fill:#E0D4D4;" d="M383.01,111.171c-1.37,8.485-6.479,35.455-17.311,47.196h-4.451
					c10.821-11.741,15.929-38.711,17.3-47.196H383.01z"/>
				<path style="fill:#E0D4D4;" d="M396.999,111.171c-1.37,8.485-6.479,35.455-17.311,47.196h-4.451
					c10.821-11.741,15.929-38.711,17.3-47.196H396.999z"/>
				<path style="fill:#E0D4D4;" d="M410.977,111.171c-1.37,8.485-6.479,35.455-17.3,47.196h-4.473
					c10.832-11.741,15.94-38.711,17.311-47.196H410.977z"/>
				<path style="fill:#E0D4D4;" d="M424.758,112.443c-1.644,9.637-6.764,34.72-17.091,45.924h-4.473
					c10.722-11.632,15.842-38.206,17.278-46.955C421.951,111.61,423.376,111.961,424.758,112.443z"/>
				<path style="fill:#E0D4D4;" d="M436.894,121.871c-2.554,11.413-7.247,27.364-14.767,35.959c-1.59,0.351-3.245,0.537-4.933,0.537
					c8.803-9.56,13.824-29.195,16.138-40.75C434.679,118.878,435.874,120.315,436.894,121.871z"/>
				
					<linearGradient id="SVGID_00000107580405704561563810000006040999817910092684_" gradientUnits="userSpaceOnUse" x1="344.7967" y1="146.0963" x2="440.7362" y2="146.0963">
					<stop  offset="0" style="stop-color:#1F3F73"/>
					<stop  offset="1" style="stop-color:#1F3F73;stop-opacity:0"/>
				</linearGradient>
				<path style="opacity:0.5;fill:url(#SVGID_00000107580405704561563810000006040999817910092684_);" d="M344.797,143.931v14.441
					l72.339,0c13.017,0.291,22.812,3.581,23.598-23.598c0.012-0.414-0.041-0.817-0.062-1.226
					C412.217,147.747,375.679,149.189,344.797,143.931z"/>
				<polygon style="fill:#2A998A;" points="361.754,185.784 283.953,189.167 283.953,74.58 361.754,74.58 				"/>
				<polygon style="fill:#2A998A;" points="283.953,189.167 440.209,181.979 440.209,160.414 283.953,168.025 				"/>
				
					<linearGradient id="SVGID_00000170999475088763456410000011516438221601293966_" gradientUnits="userSpaceOnUse" x1="283.953" y1="161.1296" x2="361.7538" y2="161.1296">
					<stop  offset="0" style="stop-color:#1F3F73"/>
					<stop  offset="1" style="stop-color:#1F3F73;stop-opacity:0"/>
				</linearGradient>
				<path style="opacity:0.5;fill:url(#SVGID_00000170999475088763456410000011516438221601293966_);" d="M283.953,133.092v56.074
					l77.801-3.383v-20.709C332.122,168.101,300.252,157.614,283.953,133.092z"/>
				<polygon style="fill:#E0D4D4;" points="349.056,130.071 296.651,132.35 296.651,84.765 349.056,84.765 				"/>
				<polygon style="fill:#21786C;" points="283.953,74.58 270,74.58 270,182.402 283.953,189.167 				"/>
				
					<linearGradient id="SVGID_00000072978529973290476690000009575983437690301577_" gradientUnits="userSpaceOnUse" x1="269.9996" y1="131.8733" x2="283.953" y2="131.8733">
					<stop  offset="0" style="stop-color:#1F3F73"/>
					<stop  offset="1" style="stop-color:#1F3F73;stop-opacity:0"/>
				</linearGradient>
				<polygon style="opacity:0.52;fill:url(#SVGID_00000072978529973290476690000009575983437690301577_);" points="283.953,74.58 
					270,74.58 270,182.402 283.953,189.167 				"/>
				<rect x="274.651" y="59.448" style="fill:#D13041;" width="95.554" height="15.129"/>
				<polygon style="fill:#AB1321;" points="274.651,59.446 261.966,61.472 261.966,74.58 274.651,74.58 				"/>
				<polygon style="fill:#E0D4D4;" points="271.22,59.996 267.207,74.577 263.272,74.577 266.758,60.708 				"/>
				
					<linearGradient id="SVGID_00000006689006729746731050000015540722076653782954_" gradientUnits="userSpaceOnUse" x1="261.967" y1="67.0122" x2="274.6513" y2="67.0122">
					<stop  offset="0" style="stop-color:#1F3F73"/>
					<stop  offset="1" style="stop-color:#1F3F73;stop-opacity:0"/>
				</linearGradient>
				<polygon style="opacity:0.5;fill:url(#SVGID_00000006689006729746731050000015540722076653782954_);" points="274.651,59.448 
					274.651,74.577 261.967,74.577 261.967,61.476 266.758,60.708 271.22,59.996 				"/>
				<circle style="fill:#AB1321;" cx="312.549" cy="179.093" r="28.596"/>
				
					<linearGradient id="SVGID_00000116942906342035031970000011073730058135851408_" gradientUnits="userSpaceOnUse" x1="283.953" y1="179.0927" x2="341.1459" y2="179.0927">
					<stop  offset="0" style="stop-color:#1F3F73"/>
					<stop  offset="1" style="stop-color:#1F3F73;stop-opacity:0"/>
				</linearGradient>
				
					<circle style="opacity:0.5;fill:url(#SVGID_00000116942906342035031970000011073730058135851408_);" cx="312.549" cy="179.093" r="28.596"/>
				<circle style="fill:#D13041;" cx="317.181" cy="180.637" r="28.596"/>
				<circle style="fill:#E0D4D4;" cx="317.181" cy="180.637" r="23.186"/>
				<circle style="fill:none;stroke:#BE1E2D;stroke-width:3.5061;stroke-miterlimit:10;" cx="317.181" cy="180.637" r="18.604"/>
				<circle style="fill:none;stroke:#BE1E2D;stroke-width:2.2887;stroke-miterlimit:10;" cx="317.181" cy="180.637" r="12.144"/>
				<circle style="fill:#D13041;" cx="317.181" cy="180.637" r="8.501"/>
				<circle style="fill:#AB1321;" cx="371.143" cy="182.288" r="21.081"/>
				
					<linearGradient id="SVGID_00000113311050662307037390000001415739480685649563_" gradientUnits="userSpaceOnUse" x1="350.0628" y1="182.2884" x2="392.2239" y2="182.2884">
					<stop  offset="0" style="stop-color:#1F3F73"/>
					<stop  offset="1" style="stop-color:#1F3F73;stop-opacity:0"/>
				</linearGradient>
				
					<circle style="opacity:0.5;fill:url(#SVGID_00000113311050662307037390000001415739480685649563_);" cx="371.143" cy="182.288" r="21.081"/>
				<circle style="fill:#D13041;" cx="374.558" cy="183.426" r="21.081"/>
				<circle style="fill:#E0D4D4;" cx="374.558" cy="183.426" r="16.247"/>
				<circle style="fill:none;stroke:#BE1E2D;stroke-width:3.2889;stroke-miterlimit:10;" cx="374.558" cy="183.426" r="11.828"/>
				<circle style="fill:#D13041;" cx="374.558" cy="183.426" r="6.895"/>
				<circle style="fill:#AB1321;" cx="421.377" cy="180.176" r="21.081"/>
				
					<linearGradient id="SVGID_00000058589483519364717690000010992570174898013333_" gradientUnits="userSpaceOnUse" x1="400.2962" y1="180.1756" x2="442.4573" y2="180.1756">
					<stop  offset="0" style="stop-color:#1F3F73"/>
					<stop  offset="1" style="stop-color:#1F3F73;stop-opacity:0"/>
				</linearGradient>
				
					<circle style="opacity:0.5;fill:url(#SVGID_00000058589483519364717690000010992570174898013333_);" cx="421.377" cy="180.176" r="21.081"/>
				<circle style="fill:#D13041;" cx="424.791" cy="181.314" r="21.081"/>
				<circle style="fill:#E0D4D4;" cx="424.791" cy="181.314" r="16.292"/>
				<circle style="fill:none;stroke:#BE1E2D;stroke-width:3.2889;stroke-miterlimit:10;" cx="424.791" cy="181.314" r="11.177"/>
				<circle style="fill:#D13041;" cx="424.791" cy="181.314" r="6.821"/>
				<path style="fill:#801D28;" d="M424.725,186.798l-105.366,2.008c-1.868,0.036-3.411-1.45-3.447-3.318l0,0
					c-0.036-1.868,1.45-3.411,3.318-3.447l105.367-2.008c1.868-0.036,3.411,1.45,3.446,3.318v0
					C428.078,185.22,426.592,186.763,424.725,186.798z"/>
				<path style="fill:#D13041;" d="M425.821,184.606l-105.366,2.008c-1.868,0.036-3.411-1.45-3.447-3.318v0
					c-0.036-1.868,1.45-3.411,3.318-3.446l105.367-2.008c1.868-0.036,3.411,1.45,3.446,3.318l0,0
					C429.174,183.027,427.689,184.57,425.821,184.606z"/>
				<rect x="322.853" y="81.859" style="fill:#2A998A;" width="2.828" height="57.621"/>
				
					<rect x="322.853" y="78.651" transform="matrix(0.0191 0.9998 -0.9998 0.0191 425.5297 -218.7954)" style="fill:#2A998A;" width="2.828" height="57.621"/>
				<path style="fill:#D13041;" d="M408.5,95.405v17.541c0,0-11.544,5.427-20.315-1.118V95.405H408.5z"/>
				
					<linearGradient id="SVGID_00000003800064109204415540000001416212548806351248_" gradientUnits="userSpaceOnUse" x1="388.1857" y1="109.513" x2="408.5003" y2="109.513">
					<stop  offset="0" style="stop-color:#1F3F73"/>
					<stop  offset="1" style="stop-color:#1F3F73;stop-opacity:0"/>
				</linearGradient>
				<path style="opacity:0.5;fill:url(#SVGID_00000003800064109204415540000001416212548806351248_);" d="M388.186,103.968v7.859
					c8.77,6.545,20.315,1.118,20.315,1.118v-4.454C401.541,109.579,394.432,108.247,388.186,103.968z"/>
				<rect x="382.978" y="91.294" style="fill:#21786C;" width="27.682" height="6.578"/>
				
					<linearGradient id="SVGID_00000028312091078511488890000013673125804853909639_" gradientUnits="userSpaceOnUse" x1="382.9783" y1="94.5826" x2="385.1709" y2="94.5826">
					<stop  offset="0" style="stop-color:#1F3F73"/>
					<stop  offset="1" style="stop-color:#1F3F73;stop-opacity:0"/>
				</linearGradient>
				
					<rect x="382.978" y="91.294" style="opacity:0.52;fill:url(#SVGID_00000028312091078511488890000013673125804853909639_);" width="2.193" height="6.578"/>
				
					<linearGradient id="SVGID_00000011013824567183677930000004989646096437018281_" gradientUnits="userSpaceOnUse" x1="388.1857" y1="97.7345" x2="408.5003" y2="97.7345">
					<stop  offset="0" style="stop-color:#1F3F73"/>
					<stop  offset="1" style="stop-color:#1F3F73;stop-opacity:0"/>
				</linearGradient>
				
					<rect x="388.186" y="95.405" style="opacity:0.5;fill:url(#SVGID_00000011013824567183677930000004989646096437018281_);" width="20.315" height="4.659"/>
				<rect x="385.171" y="91.294" style="fill:#2A998A;" width="27.682" height="6.578"/>
			</g>
			<polygon style="fill:#E0D4D4;" points="294.078,59.448 282.567,74.577 277.874,74.577 289.386,59.448 			"/>
			<polygon style="fill:#E0D4D4;" points="311.027,59.448 299.516,74.577 294.834,74.577 306.346,59.448 			"/>
			<polygon style="fill:#E0D4D4;" points="327.987,59.448 316.475,74.577 311.794,74.577 323.305,59.448 			"/>
			<polygon style="fill:#E0D4D4;" points="344.947,59.448 333.435,74.577 328.743,74.577 340.254,59.448 			"/>
			<polygon style="fill:#E0D4D4;" points="361.895,59.448 350.384,74.577 345.703,74.577 357.214,59.448 			"/>
		</g>
		<path style="opacity:0.5;fill:#FCFCFC;" d="M332.027,157.871c-5.49-4.077-12.849-5.73-19.454-3.867
			c-2.004,0.565-1.419,3.237,0.465,3.433c6.074,0.631,11.679,2.104,16.255,6.397c3.26,3.058,4.119,7.976,7.7,10.426
			c1.413,0.967,3.257-0.06,3.723-1.515C342.475,167.259,336.011,160.829,332.027,157.871z"/>
		<path style="opacity:0.5;fill:#FCFCFC;" d="M382.444,113.154c-2.83-1.332-5.866-0.53-8.909-0.19
			c-2.868,0.32-5.88,0.429-8.389,1.968c-1.038,0.636-1.259,2.474,0,3.051c2.688,1.23,5.473,1.1,8.389,1.08
			c2.903-0.02,6.387,0.504,8.909-1.078C384.085,116.955,384.435,114.092,382.444,113.154z"/>
		<path style="opacity:0.5;fill:#FCFCFC;" d="M426.095,113.641c-1.111-0.872-2.03-1.391-3.476-1.436
			c-1.175-0.036-2.367,0.043-3.541,0.072c-2.213,0.054-4.938-0.015-6.779,1.362c-1.139,0.852-1.918,2.845-0.509,3.951
			c1.906,1.498,4.133,1.716,6.501,1.852c2.308,0.133,5.195,0.758,7.147-0.703C426.908,117.64,427.913,115.069,426.095,113.641z"/>
		<path style="opacity:0.5;fill:#FCFCFC;" d="M439.969,171.008c-3.74-6.425-11.283-10.426-18.572-7.932
			c-2.403,0.822-1.99,4.299,0.599,4.427c4.914,0.243,9.715,2.525,12.148,6.91C436.249,178.205,442.161,174.773,439.969,171.008z"/>
		<path style="opacity:0.5;fill:#FCFCFC;" d="M388.357,168.045c-2.484-2.625-5.457-4.717-9.011-5.598
			c-3.616-0.897-6.445-0.143-9.721,1.342c-1.601,0.726-0.707,3.13,0.854,3.152c4.058,0.059,9.756,2.093,12.22,5.469
			C385.779,176.631,391.934,171.826,388.357,168.045z"/>
		<path style="opacity:0.5;fill:#FCFCFC;" d="M414.701,177.482c-13.949,0.417-27.897,0.972-41.843,1.489
			c-13.278,0.493-26.742,0.417-39.913,2.261c-0.894,0.125-0.635,1.453,0.182,1.509c13.518,0.927,27.227-0.164,40.758-0.625
			c13.59-0.463,27.184-0.891,40.77-1.452C416.689,180.58,416.757,177.421,414.701,177.482z"/>
		<path style="opacity:0.5;fill:#FCFCFC;" d="M358.55,132.755c-0.047-5.416-0.082-10.832-0.107-16.249
			c-0.048-10.48-0.144-20.938-0.451-31.414c-0.04-1.372-2.092-1.374-2.133,0c-0.307,10.476-0.403,20.934-0.451,31.414
			c-0.023,5.055-0.054,10.11-0.097,15.166c-0.041,4.715-0.74,9.813,0.536,14.38c0.297,1.064,1.86,1.065,2.158,0
			C359.194,141.793,358.588,137.153,358.55,132.755z"/>
	</g>
	<g>
		<g>
			<defs>
				
					<ellipse id="SVGID_00000104683190020546063190000003591792161843282878_" transform="matrix(0.976 -0.2177 0.2177 0.976 -56.136 61.3787)" cx="250.428" cy="285.397" rx="74.229" ry="74.229"/>
			</defs>
			<clipPath id="SVGID_00000088848775940496640900000013984298682035305404_">
				<use xlink:href="#SVGID_00000104683190020546063190000003591792161843282878_"  style="overflow:visible;"/>
			</clipPath>
			
				<ellipse transform="matrix(0.976 -0.2177 0.2177 0.976 -56.136 61.3787)" style="clip-path:url(#SVGID_00000088848775940496640900000013984298682035305404_);fill:#D13041;" cx="250.428" cy="285.397" rx="74.229" ry="74.229"/>
			<path style="clip-path:url(#SVGID_00000088848775940496640900000013984298682035305404_);fill:#D13041;" d="M248.44,266.621
				l7.322,3.245c0,0,8.08,43.487-14.454,89.201c-24.198-3.014-46.402-17.882-57.759-41.456
				C191.236,310.134,213.219,289.889,248.44,266.621z"/>
			<path style="clip-path:url(#SVGID_00000088848775940496640900000013984298682035305404_);fill:#D13041;" d="M257.186,255.043
				l-4.741,6.458c0,0-29.794-2.575-62.083-19.756c7.04-9.69,16.52-17.82,28.092-23.342c6.52-3.111,13.268-5.184,20.05-6.285
				C244.225,223.768,250.696,238.16,257.186,255.043z"/>
			<path style="clip-path:url(#SVGID_00000088848775940496640900000013984298682035305404_);fill:#D13041;" d="M317.418,253.427
				c8.225,17.236,9.217,36.045,4.192,53.015c-12.704-7.126-34.528-20.501-60.762-41.139l0.77-7.965c0,0,18.988-12.13,47.992-16.764
				C312.583,244.51,315.212,248.803,317.418,253.427z"/>
			<path style="clip-path:url(#SVGID_00000088848775940496640900000013984298682035305404_);fill:#E0D4D4;" d="M255.761,269.866
				c0,0,8.08,43.487-14.454,89.201c-24.198-3.014-46.402-17.882-57.759-41.456c7.688-7.478,29.671-27.723,64.892-50.99
				L255.761,269.866z"/>
			<path style="clip-path:url(#SVGID_00000088848775940496640900000013984298682035305404_);fill:#E0D4D4;" d="M257.186,255.043
				l-4.741,6.458c0,0-29.794-2.575-62.083-19.756c7.04-9.69,16.52-17.82,28.092-23.342c6.52-3.111,13.268-5.184,20.05-6.285
				C244.225,223.768,250.696,238.16,257.186,255.043z"/>
			<path style="clip-path:url(#SVGID_00000088848775940496640900000013984298682035305404_);fill:#E0D4D4;" d="M317.418,253.427
				c8.225,17.236,9.217,36.045,4.192,53.015c-12.704-7.126-34.528-20.501-60.762-41.139l0.77-7.965c0,0,18.988-12.13,47.992-16.764
				C312.583,244.51,315.212,248.803,317.418,253.427z"/>
			
				<ellipse transform="matrix(0.9025 -0.4307 0.4307 0.9025 -88.3443 134.628)" style="clip-path:url(#SVGID_00000088848775940496640900000013984298682035305404_);fill:#F1E8E8;" cx="253.18" cy="262.44" rx="16.061" ry="16.061"/>
			
				<linearGradient id="SVGID_00000127764564438576658470000013219873451091726762_" gradientUnits="userSpaceOnUse" x1="186.4174" y1="300.8804" x2="324.4369" y2="300.8804" gradientTransform="matrix(0.9025 -0.4307 0.4307 0.9025 -110.6382 133.9713)">
				<stop  offset="0" style="stop-color:#1F3F73"/>
				<stop  offset="1" style="stop-color:#1F3F73;stop-opacity:0"/>
			</linearGradient>
			
				<path style="opacity:0.5;clip-path:url(#SVGID_00000088848775940496640900000013984298682035305404_);fill:url(#SVGID_00000127764564438576658470000013219873451091726762_);" d="
				M182.856,254.703c5.139,32.003,24.22,61.218,56.939,70.399c20.273,6.198,41.321,1.925,59.619-11.135
				c8.775-6.506,17.155-13.828,24.932-21.789c-2.334,25.179-17.469,48.529-41.948,60.211c-36.998,17.656-81.305,1.976-98.961-35.023
				C173.617,296.79,174.121,273.959,182.856,254.703z"/>
			
				<ellipse transform="matrix(0.9637 -0.2669 0.2669 0.9637 -60.7335 77.3601)" style="clip-path:url(#SVGID_00000088848775940496640900000013984298682035305404_);fill:#D13041;" cx="254.211" cy="262.095" rx="5.45" ry="5.45"/>
		</g>
		<path style="opacity:0.5;fill:#FCFCFC;" d="M276.404,219.858c-13.516-6.274-32.268-8.348-45.905-1.284
			c-1.675,0.867-0.83,3.279,0.99,3.082c7.077-0.764,13.942-1.83,21.098-1.273c7.264,0.565,14.353,2.419,20.981,5.444
			c14.142,6.453,24.756,18.695,30.211,33.114c1.536,4.06,7.585,1.131,6.08-2.902C303.927,240.137,291.806,227.007,276.404,219.858z"
			/>
		<path style="opacity:0.5;fill:#FCFCFC;" d="M223.929,226.963c-0.024-0.036-0.06-0.063-0.087-0.098
			c-0.423-0.747-1.16-1.286-1.974-1.541c-0.779-0.245-1.527-0.283-2.333-0.204c-0.826,0.081-1.851,0.782-2.281,1.479
			c-0.406,0.658-0.607,1.351-0.571,2.126c0.082,1.781,1.427,3.095,3.173,3.326c0.537,0.071,1.117,0.011,1.649-0.116
			c0.939-0.224,1.699-0.734,2.214-1.483c0.137-0.138,0.268-0.285,0.388-0.456c0.311-0.441,0.431-0.986,0.407-1.515
			C224.487,227.876,224.267,227.466,223.929,226.963z"/>
	</g>
	<g>
		<g>
			<path style="fill:#E6AF39;" d="M373.559,459.005L373.559,459.005c-3.904,0-7.069-3.165-7.069-7.069v-12.688h14.137v12.688
				C380.627,455.84,377.462,459.005,373.559,459.005z"/>
			
				<linearGradient id="SVGID_00000114792476580138320390000005310488826052737180_" gradientUnits="userSpaceOnUse" x1="366.4899" y1="449.1269" x2="380.6272" y2="449.1269">
				<stop  offset="0" style="stop-color:#1F3F73"/>
				<stop  offset="1" style="stop-color:#1F3F73;stop-opacity:0"/>
			</linearGradient>
			<path style="opacity:0.5;fill:url(#SVGID_00000114792476580138320390000005310488826052737180_);" d="M373.559,459.005
				L373.559,459.005c-3.904,0-7.069-3.165-7.069-7.069v-12.688h14.137v12.688C380.627,455.84,377.462,459.005,373.559,459.005z"/>
			<path style="fill:#ED6C21;" d="M363.779,319.694c-0.603,4.733,1.076,8.442,6.996,6.975c2.333-0.578,4.229-2.375,5.39-4.48
				c1.162-2.105,1.672-4.505,2.007-6.887c0.382-2.711,0.502-5.675-0.993-7.969C372.626,300.348,364.818,311.54,363.779,319.694z"/>
			
				<linearGradient id="SVGID_00000101797778808704209370000002936436601217406124_" gradientUnits="userSpaceOnUse" x1="363.6638" y1="320.3069" x2="378.3559" y2="320.3069">
				<stop  offset="0" style="stop-color:#1F3F73"/>
				<stop  offset="1" style="stop-color:#1F3F73;stop-opacity:0"/>
			</linearGradient>
			<path style="opacity:0.5;fill:url(#SVGID_00000101797778808704209370000002936436601217406124_);" d="M364.413,316.727
				c-0.293,1.008-0.511,2.009-0.634,2.967c-0.603,4.733,1.076,8.442,6.996,6.976c2.333-0.578,4.229-2.375,5.39-4.48
				c1.162-2.105,1.672-4.505,2.007-6.887c0.078-0.553,0.139-1.117,0.184-1.683C374.283,316.218,369.193,317.29,364.413,316.727z"/>
			<ellipse style="fill:#ED6C21;" cx="371.272" cy="276.735" rx="6.963" ry="8.368"/>
			<rect x="364.685" y="372.027" style="fill:#D13041;" width="19.984" height="73.386"/>
			
				<linearGradient id="SVGID_00000145049305451514793320000013239597064664109465_" gradientUnits="userSpaceOnUse" x1="364.6854" y1="408.7198" x2="384.6693" y2="408.7198">
				<stop  offset="0" style="stop-color:#1F3F73"/>
				<stop  offset="1" style="stop-color:#1F3F73;stop-opacity:0"/>
			</linearGradient>
			
				<rect x="364.685" y="372.027" style="opacity:0.5;fill:url(#SVGID_00000145049305451514793320000013239597064664109465_);" width="19.984" height="73.386"/>
			<rect x="362.485" y="423.428" style="fill:#ED6C21;" width="24.384" height="24.384"/>
			
				<linearGradient id="SVGID_00000141429529856707167920000015415876750978196149_" gradientUnits="userSpaceOnUse" x1="362.4854" y1="435.6196" x2="386.8693" y2="435.6196">
				<stop  offset="0" style="stop-color:#1F3F73"/>
				<stop  offset="1" style="stop-color:#1F3F73;stop-opacity:0"/>
			</linearGradient>
			<path style="opacity:0.5;fill:url(#SVGID_00000141429529856707167920000015415876750978196149_);" d="M371.873,423.428
				c0.64,9.244-0.454,18.062-9.388,21.993v2.391h24.384v-24.384H371.873z"/>
			<path style="fill:#ED6C21;" d="M387.468,376.652h-25.581v-20.703c0-4.368,3.541-7.908,7.908-7.908h9.764
				c4.368,0,7.908,3.541,7.908,7.908V376.652z"/>
			
				<linearGradient id="SVGID_00000045599632598384816970000004430137669176272797_" gradientUnits="userSpaceOnUse" x1="361.887" y1="362.346" x2="387.4677" y2="362.346">
				<stop  offset="0" style="stop-color:#1F3F73"/>
				<stop  offset="1" style="stop-color:#1F3F73;stop-opacity:0"/>
			</linearGradient>
			<path style="opacity:0.5;fill:url(#SVGID_00000045599632598384816970000004430137669176272797_);" d="M379.56,348.04h-9.764
				c-0.305,0-0.605,0.021-0.901,0.055c1.419,9.556,1.016,19.055-7.007,24.846v3.711h25.581v-20.703
				C387.468,351.581,383.927,348.04,379.56,348.04z"/>
			<circle style="fill:#E6AF39;" cx="400.86" cy="324.281" r="29.685"/>
			
				<linearGradient id="SVGID_00000090289722207758298900000016503425717410822303_" gradientUnits="userSpaceOnUse" x1="373.5586" y1="332.7387" x2="430.5444" y2="332.7387">
				<stop  offset="0" style="stop-color:#1F3F73"/>
				<stop  offset="1" style="stop-color:#1F3F73;stop-opacity:0"/>
			</linearGradient>
			<path style="opacity:0.5;fill:url(#SVGID_00000090289722207758298900000016503425717410822303_);" d="M427.662,311.511
				c-1.05,3.649-2.539,7.247-4.612,10.771c-8.873,15.775-33.139,23.429-49.491,13.665c4.533,10.594,15.049,18.018,27.301,18.018
				c16.394,0,29.685-13.29,29.685-29.685C430.544,319.709,429.509,315.38,427.662,311.511z"/>
			<path style="fill:#D13041;" d="M369.48,437.817c0,0,38.576,6.396,61.064,0v-83.851c0,0-21.085-4.898-49.467-1.701
				c-4.581,0.516-9.624,3.022-14.002,4.397C367.879,383.677,369.48,410.792,369.48,437.817z"/>
			
				<linearGradient id="SVGID_00000082326627016116726460000014257964846997809573_" gradientUnits="userSpaceOnUse" x1="369.4053" y1="396.0757" x2="430.5444" y2="396.0757">
				<stop  offset="0" style="stop-color:#1F3F73"/>
				<stop  offset="1" style="stop-color:#1F3F73;stop-opacity:0"/>
			</linearGradient>
			<path style="opacity:0.5;fill:url(#SVGID_00000082326627016116726460000014257964846997809573_);" d="M410.878,351.491
				c-1.304,35.606-5.392,75.667-41.472,75.946c0.047,3.461,0.075,6.921,0.075,10.38c0,0,38.576,6.396,61.064,0v-83.851
				C430.544,353.966,423.004,352.216,410.878,351.491z"/>
			<g>
				<g>
					<rect x="297.884" y="434.12" style="fill:#3B2F29;" width="113.322" height="27.383"/>
					
						<linearGradient id="SVGID_00000115502436293729545000000011961697829422495640_" gradientUnits="userSpaceOnUse" x1="297.8841" y1="454.8592" x2="411.2065" y2="454.8592">
						<stop  offset="0" style="stop-color:#1F3F73"/>
						<stop  offset="1" style="stop-color:#1F3F73;stop-opacity:0"/>
					</linearGradient>
					<path style="opacity:0.5;fill:url(#SVGID_00000115502436293729545000000011961697829422495640_);" d="M297.884,451.798v9.705
						h113.322v-13.288C380.978,451.308,328.492,451.742,297.884,451.798z"/>
					<path style="fill:#3B2F29;" d="M311.974,439.183c0,12.99-8.741,22.038-15.798,22.038s-9.758-9.048-9.758-22.038
						s0.173-23.52,7.23-23.52C300.705,415.663,311.974,426.193,311.974,439.183z"/>
					<path style="fill:#3B2F29;" d="M300.878,437.701c0,12.99-3.237,23.52-7.23,23.52c-3.993,0-7.23-10.53-7.23-23.52
						s3.237-22.038,7.23-22.038C297.641,415.663,300.878,424.711,300.878,437.701z"/>
					
						<linearGradient id="SVGID_00000104679793996819073720000001003560390064951741_" gradientUnits="userSpaceOnUse" x1="301.5403" y1="436.3128" x2="281.86" y2="443.4692">
						<stop  offset="0" style="stop-color:#1F3F73"/>
						<stop  offset="1" style="stop-color:#1F3F73;stop-opacity:0"/>
					</linearGradient>
					
						<ellipse style="opacity:0.5;fill:url(#SVGID_00000104679793996819073720000001003560390064951741_);" cx="293.648" cy="439.183" rx="7.23" ry="23.52"/>
				</g>
				<g>
					<path style="fill:#3B2F29;" d="M327.557,461.503h85.939c15.123,0,27.383-12.26,27.383-27.383v0H327.557V461.503z"/>
					
						<linearGradient id="SVGID_00000137829717745566278490000000891951367557114289_" gradientUnits="userSpaceOnUse" x1="327.5567" y1="451.1343" x2="440.0627" y2="451.1343">
						<stop  offset="0" style="stop-color:#1F3F73"/>
						<stop  offset="1" style="stop-color:#1F3F73;stop-opacity:0"/>
					</linearGradient>
					<path style="opacity:0.5;fill:url(#SVGID_00000137829717745566278490000000891951367557114289_);" d="M327.557,450.121v11.382
						h85.939c12.831,0,23.597-8.826,26.567-20.738C412.42,452.116,357.82,452.574,327.557,450.121z"/>
					<path style="fill:#3B2F29;" d="M341.647,439.183c0,12.99-5.721,22.038-12.778,22.038c-7.057,0-12.778-9.048-12.778-22.038
						s0.173-23.52,7.23-23.52S341.647,426.193,341.647,439.183z"/>
					<path style="fill:#3B2F29;" d="M330.551,437.701c0,12.99-3.237,23.52-7.23,23.52s-7.23-10.53-7.23-23.52
						s3.237-22.038,7.23-22.038S330.551,424.711,330.551,437.701z"/>
					
						<linearGradient id="SVGID_00000087406360387523827750000016403619691226317442_" gradientUnits="userSpaceOnUse" x1="331.2129" y1="436.3128" x2="311.5326" y2="443.4692">
						<stop  offset="0" style="stop-color:#1F3F73"/>
						<stop  offset="1" style="stop-color:#1F3F73;stop-opacity:0"/>
					</linearGradient>
					
						<ellipse style="opacity:0.5;fill:url(#SVGID_00000087406360387523827750000016403619691226317442_);" cx="323.321" cy="439.183" rx="7.23" ry="23.52"/>
				</g>
			</g>
			<path style="fill:#E6AF39;" d="M431.173,459.005L431.173,459.005c-3.904,0-7.069-3.165-7.069-7.069v-12.688h14.137v12.688
				C438.241,455.84,435.077,459.005,431.173,459.005z"/>
			
				<linearGradient id="SVGID_00000080164961090884249330000011089377638134368697_" gradientUnits="userSpaceOnUse" x1="425.4007" y1="449.1269" x2="438.2414" y2="449.1269">
				<stop  offset="0" style="stop-color:#1F3F73"/>
				<stop  offset="1" style="stop-color:#1F3F73;stop-opacity:0"/>
			</linearGradient>
			<path style="opacity:0.5;fill:url(#SVGID_00000080164961090884249330000011089377638134368697_);" d="M431.837,439.249
				c-0.735,6.172-2.812,12.318-6.436,16.76c1.28,1.811,3.386,2.997,5.772,2.997c3.904,0,7.069-3.165,7.069-7.069v-12.688H431.837z"
				/>
			<rect x="368.742" y="402.953" style="fill:#3B2F29;" width="56.707" height="9.678"/>
			
				<linearGradient id="SVGID_00000111183749844005646160000008743407186741579907_" gradientUnits="userSpaceOnUse" x1="396.6756" y1="407.7924" x2="425.4486" y2="407.7924">
				<stop  offset="0" style="stop-color:#1F3F73"/>
				<stop  offset="1" style="stop-color:#1F3F73;stop-opacity:0"/>
			</linearGradient>
			<path style="opacity:0.5;fill:url(#SVGID_00000111183749844005646160000008743407186741579907_);" d="M425.449,402.953h-22.504
				c-1.858,3.372-3.936,6.608-6.269,9.678h28.773V402.953z"/>
			<rect x="421.456" y="372.027" style="fill:#D13041;" width="19.984" height="73.386"/>
			
				<linearGradient id="SVGID_00000144326663917370206200000007200632465566495376_" gradientUnits="userSpaceOnUse" x1="421.3499" y1="407.9963" x2="441.4396" y2="407.9963">
				<stop  offset="0" style="stop-color:#1F3F73"/>
				<stop  offset="1" style="stop-color:#1F3F73;stop-opacity:0"/>
			</linearGradient>
			<path style="opacity:0.5;fill:url(#SVGID_00000144326663917370206200000007200632465566495376_);" d="M441.439,372.031
				c-3.912,0.006-7.268-1.036-11.041-1.382c-1.941-0.178-5.729-0.086-7.344,1.115c-2.283,1.699-1.6,4.109-1.635,7.114
				c-0.003,0.266,0.004,0.56,0.184,0.755c0.2,0.216,0.532,0.227,0.827,0.227c3.026-0.002,6.052,0.488,8.923,1.444
				c5.261,1.752,3.247,24.83,3.248,30.2c0.003,11.342-0.691,22.698-2.461,33.908c0,0,9.299,0,9.299,0c0,0,0-1.61,0-1.694
				C441.44,419.83,441.16,395.911,441.439,372.031z"/>
			<path style="fill:#D13041;" d="M427.616,305.092c0,0-51.372-1.599-54.954,0c0,0-9.485-50.372-3.735-54.369
				c5.75-3.998,48.126-9.595,63.318,3.598L427.616,305.092z"/>
			
				<linearGradient id="SVGID_00000015342084581950123420000005414775242412052872_" gradientUnits="userSpaceOnUse" x1="371.2911" y1="275.7954" x2="432.2448" y2="275.7954">
				<stop  offset="0" style="stop-color:#1F3F73"/>
				<stop  offset="1" style="stop-color:#1F3F73;stop-opacity:0"/>
			</linearGradient>
			<path style="opacity:0.5;fill:url(#SVGID_00000015342084581950123420000005414775242412052872_);" d="M408.963,246.499
				c0.697,14.237-0.906,28.189-6.301,41.004c-4.049,10.124-18.353,11.702-31.37,9.784c0.788,4.712,1.371,7.806,1.371,7.806
				c3.582-1.599,54.954,0,54.954,0l4.629-50.771C426.914,249.691,418.232,247.381,408.963,246.499z"/>
			<path style="fill:#3B2F29;" d="M428.425,303.184c1.012,0.8,0.107,5.125-2.02,4.642c-4.067-0.928-7.802-2.518-11.956-2.783
				c-10.412-0.664-20.369-0.037-30.852,0.724c-2.871,0.208-10.535,3.257-12.539,0.811c-1.199-1.463-0.363-5.831,1.44-6.573
				C382.882,295.737,416.425,293.705,428.425,303.184z"/>
			<path style="fill:#3B2F29;" d="M370.122,304.918c0.181-1.133,0.793-2.302,1.473-2.793c0.701-0.506,1.59-0.661,2.448-0.766
				c10.976-1.338,21.735-0.272,32.566-0.906c5.432-0.318,4.248,6.655,0.642,6.665c-7.593,0.021-15.404-0.301-22.933,0.243
				C381.499,307.565,369.195,310.77,370.122,304.918z"/>
			<path style="fill:#ED6C21;" d="M444.238,376.652h-25.581V354.55c0-3.595,2.915-6.51,6.51-6.51h12.56
				c3.595,0,6.51,2.915,6.51,6.51V376.652z"/>
			
				<linearGradient id="SVGID_00000136393063655448659320000001689172918876367535_" gradientUnits="userSpaceOnUse" x1="418.6572" y1="362.3608" x2="444.238" y2="362.3608">
				<stop  offset="0" style="stop-color:#1F3F73"/>
				<stop  offset="1" style="stop-color:#1F3F73;stop-opacity:0"/>
			</linearGradient>
			<path style="opacity:0.5;fill:url(#SVGID_00000136393063655448659320000001689172918876367535_);" d="M438.315,348.07
				c-1.564,12.913-6.53,24.955-19.658,24.684v3.897h25.581V354.55C444.238,351.153,441.635,348.367,438.315,348.07z"/>
			<path style="fill:#ED6C21;" d="M384.199,265.914L384.199,265.914c-1.77,0-3.247-1.35-3.407-3.112l-1.656-18.297
				c-0.247-2.733,1.904-5.088,4.648-5.088l0,0c2.66,0,4.783,2.22,4.662,4.878l-0.831,18.353
				C387.533,264.476,386.027,265.914,384.199,265.914z"/>
			<ellipse style="fill:#ED6C21;" cx="418.486" cy="276.735" rx="6.963" ry="8.368"/>
			<polyline style="fill:none;stroke:#ED6C21;stroke-width:2.2605;stroke-miterlimit:10;" points="418.486,276.652 404.261,292.515 
				370.073,294.143 365.508,276.652 			"/>
			<polygon style="fill:#ED6C21;" points="390.783,317.085 385.715,329.878 393.181,332.277 			"/>
			<path style="fill:#3B2F29;" d="M391.997,335.075c0,0,7.866-5.197,11.064-2.798c3.198,2.399,9.595,5.597,11.593,2.798
				c1.999-2.798,4.003-3.431,4.003-3.431s-1.604,7.828-5.202,8.628C409.857,341.072,394.125,341.871,391.997,335.075z"/>
			<path style="fill:#3B2F29;" d="M392.446,335.075c0,0-6.685-5.197-9.403-2.798s-8.154,5.597-9.853,2.798
				c-1.699-2.798-3.402-3.431-3.402-3.431s1.363,7.828,4.421,8.628C377.267,341.072,390.638,341.871,392.446,335.075z"/>
			<circle style="fill:#3B2F29;" cx="379.494" cy="318.263" r="2.777"/>
			<circle style="fill:#3B2F29;" cx="402.928" cy="318.263" r="2.777"/>
			<path style="fill:#ED6C21;" d="M425.844,324.914c1.031,0.988,2.185,1.911,3.554,2.318s2.997,0.197,3.987-0.832
				c0.713-0.741,1.004-1.783,1.22-2.789c1.012-4.714,0.826-9.932-1.802-13.974c-2.373-3.65-11.39-8.29-14.434-2.882
				C415.522,311.816,422.47,321.682,425.844,324.914z"/>
			
				<linearGradient id="SVGID_00000132078754418029928810000014714619631384458682_" gradientUnits="userSpaceOnUse" x1="418.0368" y1="319.7221" x2="435.1642" y2="319.7221">
				<stop  offset="0" style="stop-color:#1F3F73"/>
				<stop  offset="1" style="stop-color:#1F3F73;stop-opacity:0"/>
			</linearGradient>
			<path style="opacity:0.5;fill:url(#SVGID_00000132078754418029928810000014714619631384458682_);" d="M418.037,312.023
				c1.19,4.906,5.4,10.585,7.807,12.891c1.031,0.988,2.185,1.911,3.554,2.318c1.369,0.406,2.997,0.197,3.987-0.832
				c0.713-0.741,1.004-1.783,1.22-2.789c0.823-3.836,0.828-7.995-0.605-11.592c-0.436,0.239-0.883,0.467-1.356,0.67
				C428.291,314.139,422.184,314.269,418.037,312.023z"/>
			<circle style="fill:#ED6C21;" cx="391.248" cy="361.311" r="3.449"/>
			<circle style="fill:#ED6C21;" cx="391.248" cy="376.652" r="3.449"/>
			<circle style="fill:#ED6C21;" cx="391.248" cy="391.993" r="3.449"/>
			<rect x="418.657" y="423.428" style="fill:#ED6C21;" width="24.384" height="24.384"/>
			
				<linearGradient id="SVGID_00000146477290176633463450000004517322464123620493_" gradientUnits="userSpaceOnUse" x1="418.6572" y1="435.6196" x2="443.0411" y2="435.6196">
				<stop  offset="0" style="stop-color:#1F3F73"/>
				<stop  offset="1" style="stop-color:#1F3F73;stop-opacity:0"/>
			</linearGradient>
			<path style="opacity:0.5;fill:url(#SVGID_00000146477290176633463450000004517322464123620493_);" d="M434.906,423.428
				c-2.661,8.376-7.597,15.484-16.249,18.641v5.743h24.384v-24.384H434.906z"/>
		</g>
		<path style="opacity:0.5;fill:#FCFCFC;" d="M372.757,253.045c-0.232-1.194-2.073-0.887-2.08,0.282
			c-0.06,9.822,0.846,19.947,2.094,29.688c0.275,2.148,3.605,2.284,3.472,0C375.661,273.057,374.662,262.842,372.757,253.045z"/>
		<path style="opacity:0.5;fill:#FCFCFC;" d="M383.569,250.576c-0.187-2.49-0.154-5.077-0.976-7.45
			c-0.248-0.715-1.435-0.867-1.607,0c-0.527,2.648-0.117,5.375,0.052,8.052c0.17,2.695,0.147,5.489,0.765,8.123
			c0.301,1.282,2.052,0.876,2.161-0.292C384.221,256.248,383.777,253.344,383.569,250.576z"/>
		<path style="opacity:0.5;fill:#FCFCFC;" d="M417.9,270.149c-4.298,0.954-6.534,7.507-3.873,10.888
			c0.562,0.714,1.904,0.129,1.825-0.756c-0.129-1.442-0.292-2.845,0.221-4.24c0.578-1.572,1.674-2.279,2.951-3.225
			C420.319,271.857,419.597,269.773,417.9,270.149z"/>
		<path style="opacity:0.5;fill:#FCFCFC;" d="M401.307,300.879c-7.916-2.747-20.742-1.574-28.298,2.025
			c-0.69,0.329-0.366,1.518,0.395,1.458c4.607-0.366,9.067-1.574,13.713-1.775c4.656-0.202,9.27,0.728,13.887,0.534
			C402.312,303.065,402.524,301.301,401.307,300.879z"/>
		<path style="opacity:0.5;fill:#FCFCFC;" d="M368.856,310.094c-1.914,2.843-3.889,7.895-2.156,11.21
			c0.529,1.012,1.966,0.665,2.292-0.3c0.537-1.593,0.228-3.416,0.53-5.083c0.303-1.675,0.833-3.35,1.476-4.924
			C371.525,309.706,369.553,309.058,368.856,310.094z"/>
		<path style="opacity:0.5;fill:#FCFCFC;" d="M375.849,320.782c0.24-2.949,1.379-5.961,1.05-8.9
			c-0.065-0.585-0.808-1.07-1.283-0.531c-3.594,4.079-3.956,13.959-2.142,18.839c0.49,1.318,2.336,1.103,2.443-0.331
			C376.142,326.848,375.602,323.821,375.849,320.782z"/>
		<path style="opacity:0.5;fill:#FCFCFC;" d="M375.454,287.956c-0.024-0.003-0.048-0.007-0.072-0.01
			c-0.598-0.086-1.355,0.139-1.483,0.842c-0.004,0.02-0.007,0.04-0.011,0.06c-0.086,0.474,0.019,0.94,0.424,1.243
			c0.328,0.245,0.854,0.345,1.235,0.127c0.011-0.004,0.02-0.009,0.031-0.014c0.015-0.009,0.033-0.01,0.047-0.021
			c0.015-0.011,0.03-0.022,0.045-0.033l-0.001,0c0.337-0.169,0.593-0.464,0.642-0.879
			C376.375,288.741,376.05,288.042,375.454,287.956z"/>
		<path style="opacity:0.5;fill:#FCFCFC;" d="M379.257,355.175c-1.426-0.53-3.023,0.223-4.426,0.618
			c-1.517,0.427-3.269,0.733-4.577,1.638c-0.248,0.172-0.391,0.397-0.457,0.633c-0.027,0.064-0.058,0.123-0.07,0.201
			c-0.906,6.357,0.178,13.116,0.617,19.496c0.436,6.334,0.045,13.473,1.803,19.584c0.316,1.099,2.259,1.304,2.438,0
			c0.867-6.317-0.467-13.232-0.934-19.584c-0.44-5.993-0.349-12.48-1.833-18.357c1.27-0.119,2.563-0.565,3.765-0.877
			c1.404-0.364,3.152-0.516,4.112-1.685C380.194,356.238,379.998,355.45,379.257,355.175z"/>
		<path style="opacity:0.5;fill:#FCFCFC;" d="M385.263,404.732c-1.998-0.948-4.269-0.454-6.43-0.335
			c-2.416,0.132-4.944,0.088-7.28,0.769c-0.936,0.273-1.079,1.855,0,2.042c2.402,0.418,4.857,0.131,7.28-0.004
			c2.134-0.119,4.568,0.157,6.43-0.998C385.768,405.894,385.867,405.019,385.263,404.732z"/>
		<path style="opacity:0.5;fill:#FCFCFC;" d="M398.656,436.497c-8.2-1.432-17.099-0.593-25.406-0.561
			c-4.502,0.018-9.004,0.035-13.506,0.053c-3.909,0.015-8.102-0.521-11.793,0.894c-0.768,0.294-0.769,1.273,0,1.568
			c3.684,1.412,7.887,0.878,11.793,0.894c4.502,0.018,9.004,0.035,13.506,0.053c8.303,0.033,17.212,0.87,25.406-0.561
			C399.813,438.634,399.814,436.699,398.656,436.497z"/>
		<path style="opacity:0.5;fill:#FCFCFC;" d="M335.475,424.665c-0.943-1.703-2.189-3.579-3.929-4.539
			c-0.826-0.456-1.663,0.445-1.253,1.253c0.818,1.61,2.1,2.983,2.98,4.573c0.788,1.425,1.146,3.381,2.344,4.505
			c0.455,0.427,1.219,0.25,1.393-0.368C337.511,428.31,336.32,426.192,335.475,424.665z"/>
		<path style="opacity:0.5;fill:#FCFCFC;" d="M300.606,420.047c-0.914-0.314-1.602,0.958-0.931,1.599
			c1.224,1.169,2.508,2.191,3.491,3.589c0.934,1.329,1.366,2.956,2.336,4.233c0.406,0.534,1.518,0.646,1.655-0.216
			C307.741,425.551,303.921,421.184,300.606,420.047z"/>
		<path style="opacity:0.5;fill:#FCFCFC;" d="M429.963,350.84c-0.214-0.988-1.251-1.683-2.222-1.691
			c-2.535-0.022-5.588,0.786-6.651,3.373c-0.516,1.254-0.561,2.654-0.541,3.989c0.023,1.558-0.173,3.321,0.372,4.794
			c0.41,1.108,1.849,1.11,2.26,0c0.617-1.669,0.308-3.692,0.385-5.451c0.118-2.68,2.11-2.339,4.175-2.097
			c0.707,0.083,1.708-0.482,1.989-1.141C430.007,351.97,430.112,351.528,429.963,350.84z"/>
		<path style="opacity:0.5;fill:#FCFCFC;" d="M424.17,313.956c-0.5-1.381-0.99-3.019-0.95-4.497c0.035-1.3,0.663-2.296,0.952-3.514
			c0.2-0.841-0.528-1.56-1.366-1.366c-6.368,1.472-2.115,15.679,2.689,16.83c0.663,0.159,1.323-0.313,1.328-1.011
			C426.838,318.033,424.958,316.132,424.17,313.956z"/>
		<path style="opacity:0.5;fill:#FCFCFC;" d="M426.013,381.038c-0.192-1.357-2.037-0.815-2.181,0.295
			c-1.542,11.871-0.581,24.704-0.331,36.667c0.044,2.113,3.266,2.12,3.287,0C426.907,405.922,427.702,393.007,426.013,381.038z"/>
		<path style="opacity:0.5;fill:#FCFCFC;" d="M424.261,433.671c-0.149-2.988-0.018-6.102-0.898-8.981
			c-0.325-1.063-2.017-1.186-2.28,0c-0.652,2.94-0.304,5.989-0.217,8.981c0.087,2.997-0.089,6.135,0.622,9.057
			c0.325,1.336,2.599,1.464,2.834,0C424.798,439.751,424.411,436.674,424.261,433.671z"/>
		<path style="opacity:0.5;fill:#FCFCFC;" d="M368.947,350.169c-1.548,0.021-3.208,1.041-4.346,2.042
			c-0.811,0.713,0.093,1.735,0.941,1.616c1.386-0.194,3.199-0.8,4.147-1.867C370.271,351.304,369.899,350.156,368.947,350.169z"/>
	</g>
	<g>
		<g>
			<g>
				
					<ellipse transform="matrix(0.3023 -0.9532 0.9532 0.3023 -337.8569 406.7517)" style="fill:#BF8F26;" cx="108.93" cy="434.172" rx="26.211" ry="75.248"/>
				
					<ellipse transform="matrix(0.3023 -0.9532 0.9532 0.3023 -330.7815 405.5001)" style="fill:#E6AF39;" cx="111.613" cy="428.712" rx="26.211" ry="75.248"/>
				
					<ellipse transform="matrix(0.3023 -0.9532 0.9532 0.3023 -330.857 404.9405)" style="fill:#2A998A;" cx="111.193" cy="428.484" rx="22.943" ry="65.865"/>
				
					<rect x="56.741" y="352.696" transform="matrix(0.9532 0.3023 -0.3023 0.9532 123.9108 -18.9127)" style="fill:#2A998A;" width="132.625" height="76.281"/>
				<g>
					<path style="fill:#E0D4D4;" d="M56.236,382.164c1.694,15.865,4.703,33.703,10.075,50.792c3.301,2.173,6.977,4.313,10.974,6.378
						c-9.797-27.614-12.892-58.149-13.921-79.645L56.236,382.164z"/>
					<path style="fill:#E0D4D4;" d="M89.202,340.088l-8.87-2.813c0.176,17.06,0.294,69.236,17.977,111.08
						c1.949,0.689,3.93,1.358,5.948,1.998c1.453,0.461,2.898,0.893,4.337,1.313C90.403,411.369,89.411,360.067,89.202,340.088z"/>
					<path style="fill:#E0D4D4;" d="M115.707,348.494l-8.9-2.823c0.43,23.767,2.819,72.916,21.472,110.548
						c3.266,0.551,6.439,0.984,9.483,1.286C119.244,421.138,116.291,373.458,115.707,348.494z"/>
					<path style="fill:#E0D4D4;" d="M142.349,356.944l-8.949-2.838c0.916,26.085,4.694,69.799,22.008,103.634
						c3.014-0.288,5.733-0.775,8.117-1.452C147.435,423.873,143.425,382.889,142.349,356.944z"/>
					<path style="fill:#E0D4D4;" d="M169.157,365.446l-9.008-2.857c1.237,22.593,4.808,53.945,15.56,81.568l4.247-13.39
						C173.083,407.979,170.308,384.079,169.157,365.446z"/>
				</g>
				
					<linearGradient id="SVGID_00000090998063597543069380000016458988927276091571_" gradientUnits="userSpaceOnUse" x1="48.0223" y1="431.2996" x2="188.2747" y2="431.2996">
					<stop  offset="0" style="stop-color:#1F3F73"/>
					<stop  offset="1" style="stop-color:#1F3F73;stop-opacity:0"/>
				</linearGradient>
				<path style="opacity:0.5;fill:url(#SVGID_00000090998063597543069380000016458988927276091571_);" d="M48.543,406.421
					l-0.23,0.726l0.612,0.194c-0.202,0.398-0.38,0.806-0.515,1.232c-3.831,12.078,21.173,30.784,55.848,41.781
					c34.674,10.997,65.889,10.12,69.719-1.958c0.135-0.426,0.225-0.862,0.289-1.304l0.466,0.148l13.542-42.701
					C146.056,427.636,92.181,428.165,48.543,406.421z"/>
				
					<ellipse transform="matrix(0.3023 -0.9532 0.9532 0.3023 -254.8185 378.1171)" style="fill:#BF8F26;" cx="130.889" cy="363.129" rx="26.211" ry="75.248"/>
				
					<ellipse transform="matrix(0.3023 -0.9532 0.9532 0.3023 -247.743 376.8655)" style="fill:#E6AF39;" cx="133.572" cy="357.67" rx="26.211" ry="75.248"/>
				
					<ellipse transform="matrix(0.3023 -0.9532 0.9532 0.3023 -247.3514 376.5251)" style="fill:#E0D4D4;" cx="133.535" cy="357.232" rx="22.445" ry="64.437"/>
				
					<linearGradient id="SVGID_00000168799641526292564250000011373932722471266691_" gradientUnits="userSpaceOnUse" x1="76.8723" y1="357.0129" x2="196.7429" y2="357.0129" gradientTransform="matrix(0.9965 -0.0836 0.0836 0.9965 -32.4683 11.6305)">
					<stop  offset="0" style="stop-color:#1F3F73"/>
					<stop  offset="1" style="stop-color:#1F3F73;stop-opacity:0"/>
				</linearGradient>
				<path style="opacity:0.5;fill:url(#SVGID_00000168799641526292564250000011373932722471266691_);" d="M140.32,335.837
					c-33.923-10.758-64.46-9.901-68.208,1.915c-0.03,0.095-0.043,0.194-0.069,0.289c10.574-6.204,35.856-5.12,63.366,3.605
					c33.65,10.672,57.975,28.762,54.706,40.586c2.464-1.446,4.133-3.286,4.841-5.52C198.705,364.896,174.243,346.596,140.32,335.837
					z"/>
			</g>
			<g>
				<path style="fill:#ED6C21;" d="M109.538,333.019l-45.937-58.968c-1.228-1.576-3.513-1.833-5.059-0.568
					c-1.547,1.265-1.749,3.555-0.448,5.071l48.627,56.669c-1.202,1.896-1.146,4.425,0.348,6.252l5.65,6.909
					c1.864,2.279,5.254,2.619,7.534,0.755c2.279-1.864,2.619-5.254,0.755-7.534l-5.65-6.909
					C113.921,332.94,111.581,332.35,109.538,333.019z"/>
				
					<linearGradient id="SVGID_00000042702233366512456480000005995556951902856636_" gradientUnits="userSpaceOnUse" x1="90.5477" y1="333.3595" x2="122.2109" y2="333.3595">
					<stop  offset="0" style="stop-color:#1F3F73"/>
					<stop  offset="1" style="stop-color:#1F3F73;stop-opacity:0"/>
				</linearGradient>
				<path style="opacity:0.5;fill:url(#SVGID_00000042702233366512456480000005995556951902856636_);" d="M106.721,335.223
					c-1.202,1.896-1.146,4.425,0.348,6.253l5.65,6.909c1.864,2.279,5.254,2.619,7.534,0.755c2.279-1.864,2.619-5.254,0.755-7.534
					l-5.65-6.909c-1.437-1.757-3.777-2.348-5.819-1.679l-10.269-13.182c-2.957-0.921-5.875-2.083-8.721-3.461L106.721,335.223z"/>
			</g>
			<g>
				<path style="fill:#ED6C21;" d="M140.475,333.926l-10.558-74c-0.282-1.978-2.137-3.336-4.108-3.007
					c-1.971,0.329-3.284,2.216-2.909,4.178l14.035,73.341c-1.985,1.048-3.194,3.271-2.805,5.599l1.469,8.803
					c0.485,2.904,3.258,4.884,6.162,4.399c2.904-0.485,4.884-3.258,4.399-6.162l-1.469-8.803
					C144.317,336.036,142.58,334.361,140.475,333.926z"/>
				
					<linearGradient id="SVGID_00000093137267827633188910000017258890849368373168_" gradientUnits="userSpaceOnUse" x1="129.4676" y1="319.4397" x2="161.1309" y2="319.4397" gradientTransform="matrix(0.8678 0.497 -0.497 0.8678 170.2283 -16.7569)">
					<stop  offset="0" style="stop-color:#1F3F73"/>
					<stop  offset="1" style="stop-color:#1F3F73;stop-opacity:0"/>
				</linearGradient>
				<path style="opacity:0.5;fill:url(#SVGID_00000093137267827633188910000017258890849368373168_);" d="M136.935,334.439
					c-1.985,1.048-3.194,3.271-2.805,5.599l1.47,8.803c0.485,2.904,3.258,4.884,6.162,4.399c2.904-0.485,4.884-3.258,4.399-6.162
					l-1.469-8.803c-0.374-2.239-2.111-3.914-4.216-4.349l-2.36-16.543c-2.108-2.269-4.063-4.728-5.848-7.337L136.935,334.439z"/>
			</g>
		</g>
		<path style="opacity:0.5;fill:#FCFCFC;" d="M73.445,326.487c-7.377,2.011-10.841,10.294-7.799,17.06
			c0.621,1.381,2.841,0.397,2.423-1.022c-1.467-4.98,1.63-10.465,6.49-11.999C77.118,329.719,76.062,325.774,73.445,326.487z"/>
		<path style="opacity:0.5;fill:#FCFCFC;" d="M81.575,327.425c-0.869-0.978-2.653-0.211-2.596,1.075
			c0.055,1.235,1.669,2.117,2.596,1.075C82.236,328.831,82.235,328.167,81.575,327.425z"/>
		<path style="opacity:0.5;fill:#FCFCFC;" d="M61.367,378.549c-2.286,8.524-4.911,17.108-6.289,25.829
			c-0.237,1.502,1.728,2.062,2.28,0.628c3.171-8.239,5.191-16.981,7.475-25.502C65.433,377.268,61.967,376.313,61.367,378.549z"/>
		<path style="opacity:0.5;fill:#FCFCFC;" d="M66.939,367.686c-0.385-0.005-0.765,0.017-1.133,0.141
			c-1.107,0.372-1.639,1.201-1.764,2.317c-0.006,0.058-0.013,0.116-0.019,0.174c-0.077,0.693,0.449,1.486,1.036,1.806l0.173,0.094
			c0.693,0.378,1.745,0.51,2.425,0c0.486-0.364,0.846-0.728,1.179-1.226C69.79,369.568,68.52,367.706,66.939,367.686z"/>
		<path style="opacity:0.5;fill:#FCFCFC;" d="M73.565,289.841c-2.867-5.681-7.144-10.797-11.048-15.799
			c-0.796-1.019-2.497,0.306-1.792,1.383c3.468,5.297,6.951,10.986,11.402,15.526C72.879,291.718,74.022,290.747,73.565,289.841z"/>
		<path style="opacity:0.5;fill:#FCFCFC;" d="M128.106,262.192c-0.305-1.266-2.379-1.022-2.302,0.312
			c0.516,8.899,1.741,18.714,4.022,27.317c0.34,1.282,2.39,1.046,2.342-0.317C131.856,280.593,130.191,270.845,128.106,262.192z"/>
		<path style="opacity:0.5;fill:#FCFCFC;" d="M165.52,376.961c-13.568,0.099-26.715-1.492-39.596-5.938
			c-6.52-2.25-12.811-5.146-18.802-8.558c-5.622-3.202-10.748-7.605-16.611-10.3c-0.724-0.333-1.724,0.397-1.196,1.196
			c3.654,5.534,9.992,9.54,15.57,12.931c5.773,3.51,11.899,6.43,18.222,8.804c13.374,5.021,28.102,7.766,42.414,6.996
			C168.796,381.918,168.848,376.937,165.52,376.961z"/>
		<path style="opacity:0.5;fill:#FCFCFC;" d="M180.367,376.617c-0.231-0.474-0.45-0.956-0.738-1.4
			c-0.769-1.186-2.441-2.028-3.781-1.164c-1.1,0.709-1.569,2.102-1.132,3.335c0.246,0.693,0.583,1.343,0.917,1.995
			c0.655,1.278,2.553,1.755,3.75,0.983C180.708,379.513,181.04,377.999,180.367,376.617z"/>
	</g>
</g>
</svg>
